<svg xmlns="http://www.w3.org/2000/svg" width="888" height="888" viewBox="0 0 888 888">
<g>
<path d="M 487.97,653.09 L 483.24,653.48 L 480.83,653.66 L 475.80,653.97 L 460.50,654.54 L 457.61,654.58 L 452.19,654.63 L 450.88,654.64 L 448.44,654.65 L 447.25,654.65 L 445.08,654.65 L 444.04,654.65 L 442.22,654.64 L 441.35,654.63 L 439.93,654.61 L 439.28,654.59 L 438.33,654.56 L 437.92,654.54 L 437.50,654.49 L 437.36,654.47 L 436.84,654.40 L 436.55,654.36 L 436.27,654.33 L 437.01,654.37 L 438.74,654.43 L 442.27,654.53 L 444.15,654.56 L 447.95,654.60 L 449.93,654.60 L 458.02,654.54 L 462.17,654.43 L 470.49,654.16 L 474.52,653.96 L 482.44,653.52 L 486.04,653.24 L 488.35,653.05 M 463.67,649.06 L 462.76,649.13 L 462.08,649.15 L 460.57,649.21 L 459.61,649.23 L 457.56,649.27 L 456.36,649.29 L 453.85,649.32 L 452.44,649.33 L 449.54,649.34 L 447.96,649.35 L 441.36,649.34 L 437.75,649.32 L 432.22,649.30 L 428.84,649.30 L 427.33,649.31 L 424.41,649.33 L 423.14,649.35 L 420.73,649.39 L 419.73,649.42 L 417.85,649.48 L 417.13,649.52 L 415.84,649.60 L 415.42,649.65 L 414.74,649.74 L 414.65,649.80 L 414.63,649.91 L 414.88,649.97 L 417.45,650.86 L 418.14,651.20 L 418.38,651.37 L 418.81,651.69 L 418.90,651.84 L 419.93,652.32 L 421.32,652.67 L 422.28,652.86 L 422.66,652.92 L 421.28,652.79 L 418.03,652.43 L 416.46,652.25 L 413.74,651.88 L 412.47,651.70 L 410.59,651.38 L 410.18,651.30 L 409.58,651.16 L 409.03,650.97 L 408.66,650.77 L 408.47,650.42 L 408.47,650.26 L 409.05,649.97 L 409.43,649.84 L 410.81,649.62 L 411.60,649.52 L 413.81,649.36 L 415.02,649.29 L 418.10,649.19 L 419.75,649.15 L 423.73,649.11 L 425.84,649.09 L 430.77,649.10 L 439.26,649.18 L 442.66,649.23 L 448.89,649.26 L 450.37,649.27 L 453.11,649.27 L 454.44,649.26 L 456.81,649.25 L 457.94,649.24 L 459.87,649.21 L 460.78,649.19 L 462.20,649.14 L 462.85,649.12 L 463.67,649.06 M 506.21,650.13 L 506.34,650.01 L 506.21,650.13 M 591.79,625.44 L 590.81,625.52 L 590.20,625.55 L 588.33,625.62 L 587.29,625.66 L 584.58,625.73 L 583.13,625.76 L 579.66,625.82 L 577.83,625.86 L 573.64,625.92 L 571.46,625.95 L 566.62,626.01 L 564.13,626.03 L 558.70,626.09 L 555.91,626.12 L 549.95,626.17 L 546.90,626.19 L 540.47,626.24 L 537.20,626.26 L 530.35,626.30 L 526.88,626.32 L 519.68,626.36 L 516.04,626.38 L 508.55,626.42 L 500.99,626.45 L 485.26,626.51 L 477.33,626.53 L 461.21,626.57 L 454.34,626.58 L 461.55,626.56 L 477.65,626.52 L 485.56,626.49 L 501.27,626.43 L 508.81,626.40 L 516.30,626.36 L 519.93,626.34 L 527.12,626.30 L 530.58,626.28 L 537.41,626.23 L 540.68,626.21 L 547.10,626.16 L 550.14,626.14 L 556.09,626.09 L 558.86,626.06 L 564.28,626.01 L 566.77,625.98 L 571.59,625.92 L 573.76,625.89 L 577.94,625.83 L 579.76,625.80 L 583.22,625.74 L 584.66,625.71 L 587.35,625.64 L 588.38,625.61 L 590.24,625.54 L 590.83,625.51 L 591.80,625.44 M 317.30,621.59 L 318.17,621.61 L 318.72,621.62 L 320.50,621.63 L 321.50,621.64 L 324.14,621.66 L 325.57,621.67 L 329.02,621.69 L 330.85,621.69 L 335.07,621.71 L 337.27,621.72 L 342.20,621.74 L 344.75,621.74 L 350.36,621.76 L 353.24,621.77 L 353.99,621.77 L 350.28,621.79 L 347.60,621.81 L 342.44,621.84 L 340.16,621.87 L 335.81,621.91 L 333.92,621.94 L 330.33,622.00 L 328.80,622.03 L 325.93,622.09 L 324.75,622.13 L 322.56,622.20 L 321.71,622.24 L 320.16,622.33 L 319.61,622.37 L 318.66,622.47 L 318.39,622.52 L 318.00,622.63 L 318.00,622.68 L 318.55,623.69 L 319.50,624.28 L 320.31,624.55 L 321.78,624.97 L 320.90,624.80 L 318.64,624.21 L 317.63,623.91 L 316.28,623.30 L 315.29,622.36 L 315.19,622.08 L 315.71,621.71 L 317.22,621.58 M 582.72,622.44 L 585.79,622.51 L 587.24,622.54 L 589.62,622.62 L 590.73,622.66 L 592.46,622.75 L 593.25,622.80 L 594.38,622.89 L 594.88,622.94 L 595.46,623.05 L 595.76,623.22 L 595.73,623.31 L 595.76,623.23 L 595.45,623.06 L 594.85,622.95 L 594.35,622.90 L 593.20,622.80 L 592.39,622.76 L 590.64,622.67 L 589.51,622.63 L 587.10,622.55 L 585.63,622.51 L 582.54,622.43 M 329.39,617.27 L 334.48,617.31 L 337.30,617.33 L 343.11,617.37 L 346.28,617.39 L 352.77,617.42 L 356.25,617.44 L 363.37,617.47 L 367.14,617.48 L 374.83,617.51 L 378.87,617.52 L 387.08,617.55 L 391.36,617.56 L 400.03,617.57 L 404.53,617.58 L 413.61,617.59 L 418.30,617.60 L 427.74,617.61 L 432.59,617.61 L 441.53,617.61 L 436.89,617.61 L 425.37,617.61 L 419.72,617.61 L 409.10,617.61 L 403.90,617.60 L 394.15,617.59 L 389.39,617.59 L 380.50,617.57 L 376.16,617.56 L 368.10,617.53 L 364.18,617.52 L 356.93,617.49 L 353.41,617.47 L 346.96,617.43 L 343.84,617.41 L 338.16,617.37 L 335.41,617.34 L 330.49,617.29 L 328.12,617.26 L 327.07,617.25 M 457.03,612.76 L 467.11,612.77 L 487.12,612.79 L 497.05,612.80 L 516.30,612.83 L 521.03,612.83 L 530.25,612.85 L 534.81,612.86 L 543.62,612.88 L 547.97,612.89 L 556.29,612.91 L 560.38,612.92 L 568.14,612.95 L 571.95,612.96 L 579.07,612.99 L 582.54,613.00 L 588.93,613.03 L 592.04,613.05 L 597.63,613.08 L 600.33,613.10 L 605.05,613.13 L 607.29,613.15 L 611.06,613.18 L 612.82,613.20 L 615.55,613.24 L 616.17,613.25 L 617.19,613.27 L 617.67,613.28 L 618.40,613.30 L 618.74,613.31 L 619.18,613.33 L 619.50,613.36 L 619.64,613.41 L 619.45,613.65 L 619.29,613.79 L 618.59,614.17 L 618.18,614.37 L 617.06,614.84 L 615.00,615.60 L 614.34,615.82 L 612.71,616.19 L 612.24,616.28 L 611.04,616.44 L 610.39,616.52 L 608.76,616.65 L 607.87,616.72 L 605.67,616.83 L 604.48,616.89 L 601.57,616.99 L 600.01,617.04 L 596.26,617.12 L 594.27,617.16 L 589.56,617.23 L 588.32,617.24 L 585.63,617.27 L 584.24,617.29 L 581.26,617.32 L 579.74,617.33 L 576.46,617.35 L 574.78,617.36 L 571.18,617.39 L 569.33,617.40 L 565.40,617.42 L 563.39,617.43 L 559.10,617.44 L 556.91,617.45 L 552.25,617.47 L 549.88,617.47 L 544.83,617.49 L 542.26,617.49 L 536.82,617.51 L 534.05,617.51 L 528.19,617.52 L 525.21,617.53 L 518.91,617.54 L 515.71,617.54 L 514.62,617.54 L 516.95,617.54 L 519.66,617.53 L 525.01,617.52 L 527.58,617.52 L 532.64,617.50 L 535.06,617.50 L 539.84,617.48 L 542.12,617.48 L 546.62,617.46 L 548.76,617.45 L 557.08,617.42 L 560.84,617.40 L 568.12,617.36 L 571.38,617.34 L 577.68,617.29 L 580.47,617.27 L 585.84,617.22 L 588.19,617.19 L 592.68,617.13 L 594.62,617.09 L 598.29,617.02 L 599.84,616.99 L 602.75,616.91 L 603.94,616.87 L 606.14,616.78 L 607.00,616.74 L 608.55,616.64 L 609.10,616.59 L 610.05,616.48 L 610.32,616.43 L 610.73,616.31 L 610.75,616.25 L 611.53,615.32 L 612.38,614.88 L 612.83,614.84 L 612.89,614.72 L 612.34,614.60 L 611.81,614.52 L 610.59,614.35 L 609.78,614.26 L 608.03,614.07 L 607.00,613.97 L 605.35,613.89 L 603.51,613.83 L 602.24,613.81 L 599.47,613.76 L 597.77,613.73 L 594.14,613.69 L 592.03,613.66 L 587.61,613.62 L 585.13,613.60 L 579.98,613.55 L 577.16,613.53 L 571.34,613.49 L 568.21,613.47 L 561.79,613.44 L 558.38,613.42 L 551.43,613.38 L 547.77,613.37 L 540.35,613.34 L 536.48,613.32 L 528.64,613.30 L 524.59,613.28 L 516.41,613.26 L 512.22,613.25 L 495.17,613.20 L 486.37,613.19 L 468.65,613.16 L 459.71,613.15 L 441.83,613.14 L 433.01,613.13 L 415.48,613.13 L 407.03,613.14 L 398.64,613.14 L 394.56,613.15 L 386.47,613.16 L 382.56,613.16 L 374.83,613.18 L 371.12,613.19 L 363.82,613.20 L 360.35,613.21 L 353.54,613.24 L 350.34,613.25 L 344.08,613.27 L 341.19,613.29 L 335.55,613.32 L 332.99,613.33 L 328.03,613.37 L 325.83,613.39 L 321.63,613.43 L 319.83,613.45 L 316.44,613.49 L 315.07,613.51 L 312.55,613.56 L 311.64,613.58 L 310.07,613.63 L 309.65,613.66 L 306.14,613.94 L 304.29,614.15 L 303.60,614.26 L 302.39,614.49 L 302.03,614.62 L 301.47,614.87 L 301.43,615.00 L 301.51,615.28 L 301.79,615.42 L 302.52,615.72 L 303.13,615.88 L 304.51,616.20 L 305.44,616.37 L 307.33,616.69 L 306.50,616.59 L 305.53,616.45 L 303.81,616.19 L 303.00,616.05 L 301.58,615.79 L 300.90,615.66 L 299.76,615.40 L 299.22,615.27 L 298.33,615.01 L 297.51,614.74 L 296.55,614.17 L 296.00,613.19 L 296.00,613.18 L 296.23,613.16 L 296.39,613.15 L 296.92,613.13 L 297.23,613.12 L 298.05,613.10 L 298.50,613.09 L 299.61,613.07 L 300.20,613.06 L 301.58,613.05 L 302.31,613.04 L 303.95,613.02 L 305.66,613.00 L 309.82,612.97 L 312.02,612.96 L 317.11,612.93 L 319.76,612.92 L 325.69,612.89 L 328.75,612.88 L 335.45,612.86 L 338.89,612.85 L 346.28,612.83 L 350.05,612.82 L 358.05,612.81 L 362.11,612.80 L 370.64,612.79 L 374.97,612.78 L 383.95,612.77 L 388.49,612.77 L 397.85,612.76 L 407.29,612.76 L 426.96,612.75 L 436.88,612.75 M 255.22,595.07 L 255.68,595.09 L 256.78,595.17 L 258.74,595.34 L 258.88,595.35 L 259.44,595.38 L 259.77,595.39 L 260.68,595.42 L 261.18,595.43 L 262.43,595.45 L 263.10,595.47 L 264.68,595.49 L 265.51,595.50 L 267.40,595.53 L 268.39,595.54 L 270.59,595.56 L 271.73,595.57 L 274.23,595.59 L 275.51,595.60 L 278.29,595.62 L 281.14,595.64 L 287.64,595.68 L 291.01,595.70 L 298.49,595.73 L 302.34,595.75 L 310.71,595.78 L 315.00,595.80 L 324.17,595.83 L 328.85,595.84 L 338.73,595.86 L 343.75,595.88 L 354.25,595.90 L 359.57,595.91 L 370.60,595.93 L 376.17,595.93 L 387.64,595.95 L 393.42,595.96 L 405.23,595.97 L 411.17,595.97 L 423.23,595.98 L 435.34,595.99 L 459.94,595.99 L 472.24,595.99 L 496.67,595.98 L 502.73,595.98 L 514.70,595.97 L 520.65,595.97 L 532.33,595.95 L 538.12,595.95 L 549.41,595.93 L 555.00,595.92 L 565.82,595.90 L 571.16,595.89 L 581.42,595.87 L 586.46,595.86 L 596.06,595.83 L 600.77,595.82 L 609.62,595.79 L 613.94,595.78 L 621.95,595.74 L 625.84,595.73 L 632.92,595.69 L 636.34,595.67 L 642.40,595.63 L 643.84,595.62 L 646.53,595.60 L 647.84,595.59 L 650.23,595.57 L 651.40,595.56 L 653.50,595.54 L 654.51,595.53 L 656.30,595.50 L 657.16,595.49 L 658.63,595.47 L 659.33,595.46 L 660.47,595.43 L 660.99,595.42 L 661.79,595.39 L 662.58,595.35 L 663.49,595.28 L 665.03,595.18 L 665.76,595.13 L 666.97,595.07 L 667.54,595.04 L 668.18,595.04 L 666.43,595.17 L 665.14,595.43 L 664.64,595.63 L 663.72,596.05 L 663.44,596.31 L 663.00,596.86 L 663.00,597.17 L 663.11,597.48 L 663.31,597.59 L 663.80,597.78 L 664.14,597.82 L 665.76,597.90 L 666.70,597.79 L 667.77,597.61 L 666.42,597.90 L 663.42,598.35 L 663.25,598.37 L 662.64,598.42 L 662.29,598.44 L 661.33,598.48 L 660.81,598.50 L 659.52,598.54 L 658.83,598.56 L 657.21,598.60 L 656.37,598.61 L 654.44,598.65 L 653.46,598.67 L 653.66,598.59 L 654.33,598.27 L 654.51,598.10 L 654.76,597.77 L 654.70,597.61 L 654.02,597.46 L 652.92,597.37 L 652.04,597.33 L 650.05,597.25 L 648.71,597.21 L 645.80,597.13 L 643.98,597.10 L 640.11,597.03 L 637.80,596.99 L 632.92,596.93 L 630.10,596.90 L 624.20,596.85 L 620.85,596.82 L 617.43,596.80 L 615.62,596.79 L 611.93,596.76 L 609.98,596.75 L 606.01,596.73 L 603.92,596.72 L 599.68,596.70 L 597.45,596.69 L 592.91,596.67 L 590.54,596.66 L 585.72,596.65 L 583.19,596.64 L 578.08,596.62 L 575.41,596.62 L 569.99,596.60 L 567.17,596.59 L 561.46,596.58 L 558.48,596.58 L 552.46,596.56 L 549.33,596.56 L 542.99,596.55 L 539.71,596.55 L 533.05,596.54 L 529.61,596.53 L 522.64,596.53 L 519.03,596.52 L 511.73,596.52 L 507.96,596.51 L 500.33,596.51 L 496.40,596.51 L 488.44,596.50 L 484.33,596.50 L 476.03,596.50 L 471.76,596.50 L 463.12,596.50 L 458.67,596.50 L 441.79,596.50 L 431.01,596.50 L 425.85,596.50 L 415.68,596.51 L 410.82,596.51 L 401.25,596.51 L 396.69,596.52 L 387.70,596.52 L 383.42,596.53 L 374.99,596.54 L 370.99,596.54 L 363.11,596.55 L 359.38,596.56 L 352.04,596.57 L 348.56,596.58 L 341.74,596.60 L 338.52,596.61 L 332.20,596.63 L 329.23,596.64 L 323.40,596.66 L 320.66,596.67 L 315.30,596.70 L 312.79,596.71 L 307.89,596.74 L 305.60,596.76 L 301.14,596.79 L 299.07,596.81 L 295.03,596.85 L 293.17,596.87 L 289.54,596.91 L 287.87,596.93 L 284.64,596.98 L 283.17,597.01 L 280.31,597.06 L 279.02,597.08 L 276.52,597.14 L 275.41,597.17 L 273.26,597.23 L 272.31,597.26 L 270.49,597.33 L 269.70,597.37 L 268.20,597.44 L 267.56,597.48 L 266.36,597.55 L 265.87,597.59 L 264.95,597.68 L 264.60,597.72 L 263.43,597.91 L 263.21,598.01 L 263.01,598.22 L 263.23,598.33 L 263.87,598.57 L 264.46,598.70 L 264.88,598.78 L 264.76,598.78 L 263.65,598.74 L 263.13,598.72 L 262.35,598.68 L 262.01,598.66 L 261.58,598.62 L 260.08,598.43 L 257.63,598.04 L 256.49,597.84 L 254.75,597.43 L 253.98,597.22 L 252.95,596.78 L 252.20,596.09 L 252.10,595.80 L 252.24,595.41 L 252.39,595.24 L 253.16,595.08 L 253.64,595.03 M 670.15,595.13 L 670.70,595.40 L 670.81,596.09 L 670.76,596.25 L 670.39,595.33 L 669.69,595.09 M 325.37,580.20 L 320.38,580.23 L 310.61,580.30 L 306.06,580.33 L 297.17,580.40 L 293.10,580.44 L 289.09,580.48 L 287.18,580.50 L 283.43,580.55 L 281.66,580.57 L 278.19,580.61 L 276.56,580.64 L 273.37,580.68 L 271.89,580.71 L 269.01,580.75 L 267.68,580.78 L 265.11,580.83 L 263.95,580.86 L 261.70,580.91 L 260.70,580.94 L 258.80,580.99 L 257.98,581.02 L 256.42,581.07 L 255.78,581.10 L 254.59,581.16 L 254.13,581.19 L 253.32,581.25 L 253.06,581.28 L 252.63,581.35 L 252.57,581.38 L 251.48,582.02 L 251.00,582.40 L 250.88,582.56 L 250.73,582.87 L 250.78,582.99 L 250.96,583.22 L 251.18,583.31 L 251.34,583.33 L 251.56,583.34 L 252.12,583.36 L 252.55,583.37 L 253.49,583.39 L 254.11,583.40 L 255.43,583.42 L 256.23,583.43 L 257.92,583.45 L 258.89,583.46 L 260.93,583.47 L 262.07,583.48 L 264.45,583.50 L 265.76,583.51 L 266.43,583.51 L 262.75,583.50 L 260.66,583.50 L 256.72,583.48 L 254.79,583.48 L 251.17,583.47 L 249.40,583.46 L 246.11,583.45 L 244.51,583.44 L 241.56,583.42 L 240.14,583.42 L 237.55,583.40 L 236.31,583.39 L 234.10,583.37 L 233.04,583.37 L 231.22,583.35 L 230.36,583.34 L 228.94,583.32 L 228.28,583.31 L 227.27,583.29 L 226.82,583.28 L 226.25,583.26 L 225.25,583.21 L 223.43,583.06 L 222.57,582.98 L 221.13,582.78 L 220.47,582.67 L 219.57,582.44 L 219.00,582.10 L 219.00,582.05 L 219.62,581.93 L 220.02,581.86 L 221.39,581.73 L 222.15,581.67 L 224.18,581.53 L 225.27,581.46 L 227.89,581.32 L 229.26,581.25 L 232.37,581.12 L 233.98,581.05 L 237.50,580.92 L 239.31,580.86 L 243.17,580.74 L 249.25,580.58 L 249.86,580.56 L 251.36,580.54 L 252.15,580.52 L 254.01,580.50 L 254.98,580.48 L 257.17,580.46 L 258.31,580.45 L 260.84,580.42 L 262.14,580.41 L 264.99,580.39 L 266.45,580.38 L 269.60,580.36 L 271.22,580.35 L 274.66,580.33 L 276.42,580.32 L 280.15,580.30 L 283.94,580.28 L 292.33,580.25 L 296.65,580.24 L 306.01,580.21 L 310.80,580.20 L 321.03,580.18 L 326.24,580.17 L 332.77,580.16 M 655.38,580.67 L 659.92,580.69 L 668.28,580.74 L 670.30,580.76 L 674.14,580.78 L 676.03,580.79 L 679.60,580.82 L 681.35,580.83 L 684.63,580.86 L 686.23,580.87 L 689.21,580.90 L 690.66,580.91 L 693.33,580.94 L 694.62,580.96 L 696.96,580.98 L 698.09,581.00 L 700.09,581.03 L 701.05,581.04 L 702.70,581.07 L 703.49,581.08 L 704.78,581.11 L 705.38,581.13 L 706.29,581.16 L 706.70,581.17 L 707.23,581.20 L 707.58,581.25 L 707.79,581.46 L 707.89,582.00 L 707.58,582.75 L 707.57,582.76 L 707.21,582.78 L 706.98,582.79 L 706.18,582.82 L 705.73,582.83 L 704.51,582.85 L 703.85,582.86 L 702.22,582.88 L 701.36,582.89 L 699.34,582.91 L 698.28,582.92 L 695.87,582.95 L 694.63,582.96 L 691.86,582.98 L 690.43,582.99 L 687.30,583.01 L 685.70,583.02 L 682.24,583.04 L 680.47,583.05 L 679.19,583.05 L 679.31,583.02 L 679.64,582.83 L 679.64,582.71 L 679.53,582.44 L 679.31,582.24 L 678.76,581.79 L 678.32,581.47 L 677.89,581.37 L 677.30,581.31 L 676.86,581.28 L 675.90,581.22 L 675.27,581.19 L 673.93,581.13 L 673.12,581.10 L 671.42,581.05 L 670.44,581.02 L 668.40,580.97 L 667.25,580.94 L 664.87,580.89 L 663.56,580.86 L 660.86,580.81 L 659.39,580.79 L 656.38,580.74 L 654.77,580.71 L 651.46,580.67 L 649.70,580.64 L 649.13,580.64 M 383.76,551.25 L 383.69,554.31 L 383.60,559.95 L 383.58,561.30 L 383.55,563.80 L 383.54,565.01 L 383.53,567.18 L 383.52,568.23 L 383.53,570.02 L 383.53,570.86 L 383.55,572.20 L 383.57,572.81 L 383.61,573.65 L 383.68,574.25 L 383.72,574.32 L 384.20,574.45 L 384.50,574.51 L 385.43,574.62 L 385.94,574.67 L 387.27,574.76 L 387.97,574.80 L 389.61,574.86 L 391.32,574.92 L 395.42,574.99 L 397.53,575.01 L 402.03,575.00 L 404.28,574.98 L 408.63,574.90 L 410.73,574.85 L 414.40,574.70 L 415.24,574.66 L 416.71,574.56 L 417.40,574.51 L 418.51,574.40 L 419.02,574.34 L 419.70,574.22 L 419.98,574.15 L 420.02,574.12 L 419.96,574.61 L 419.93,574.72 L 418.95,576.09 L 417.95,576.89 L 417.43,577.10 L 417.58,577.24 L 418.20,577.32 L 418.76,577.35 L 420.02,577.42 L 420.87,577.45 L 422.71,577.49 L 423.82,577.51 L 426.15,577.54 L 427.49,577.54 L 430.26,577.55 L 431.79,577.55 L 434.94,577.53 L 436.62,577.52 L 440.07,577.48 L 441.88,577.45 L 452.18,577.26 L 455.29,577.18 L 456.71,577.13 L 459.47,577.05 L 460.70,577.00 L 463.03,576.91 L 464.02,576.86 L 465.86,576.77 L 466.56,576.72 L 467.83,576.63 L 468.22,576.58 L 468.84,576.49 L 468.88,576.45 L 469.02,575.84 L 469.11,574.97 L 469.16,574.33 L 469.26,572.91 L 469.31,572.01 L 469.42,570.11 L 469.47,569.00 L 469.57,566.67 L 469.62,565.38 L 469.71,562.71 L 469.76,561.26 L 469.93,555.22 L 470.00,551.93 L 470.00,575.00 L 493.50,575.00 L 490.86,576.73 L 493.18,577.35 L 493.78,577.41 L 494.54,577.46 L 495.08,577.48 L 496.28,577.52 L 497.04,577.54 L 498.67,577.58 L 499.37,577.59 L 497.96,577.59 L 484.63,577.61 L 463.75,577.63 L 459.03,577.63 L 449.94,577.64 L 445.46,577.64 L 436.84,577.64 L 432.59,577.64 L 424.42,577.65 L 420.40,577.65 L 412.68,577.65 L 408.88,577.65 L 405.97,577.65 L 406.23,577.63 L 406.65,577.57 L 406.65,577.51 L 406.53,577.38 L 406.28,577.28 L 405.67,577.06 L 405.21,576.92 L 404.16,576.61 L 403.50,576.43 L 399.20,575.51 L 396.28,575.14 L 394.91,575.08 L 392.25,575.04 L 391.12,575.15 L 389.04,575.46 L 388.33,575.75 L 388.16,576.10 L 388.71,576.34 L 389.28,576.45 L 390.64,576.67 L 391.59,576.78 L 393.69,576.98 L 395.00,577.06 L 398.13,577.27 L 399.40,577.35 L 401.77,577.50 L 402.69,577.54 L 404.35,577.63 L 404.94,577.64 L 405.81,577.65 L 401.59,577.65 L 398.00,577.65 L 391.14,577.65 L 387.76,577.65 L 382.47,577.65 L 382.96,577.54 L 383.41,577.33 L 384.17,576.84 L 384.32,576.52 L 384.49,575.83 L 384.33,575.42 L 383.56,574.49 L 382.83,574.10 L 382.45,574.03 L 381.71,573.99 L 381.44,574.13 L 381.00,574.49 L 381.00,574.85 L 380.34,575.76 L 379.37,576.48 L 378.75,576.78 L 377.78,577.25 L 377.50,577.40 L 377.13,577.64 L 372.07,577.64 L 369.09,577.64 L 363.41,577.63 L 360.63,577.63 L 358.05,577.62 L 358.35,577.62 L 359.94,577.59 L 362.95,577.54 L 364.16,577.52 L 366.36,577.46 L 367.13,577.44 L 368.43,577.38 L 368.71,577.35 L 368.92,577.33 L 368.93,577.31 L 368.88,577.29 L 368.75,577.27 L 367.23,577.10 L 366.42,576.93 L 366.09,576.75 L 365.50,576.32 L 365.27,575.93 L 364.85,575.04 L 364.84,575.00 L 380.00,575.00 L 380.00,523.17 L 379.99,516.76 L 379.98,513.61 L 379.95,507.67 L 379.94,504.77 L 379.90,499.43 L 379.87,496.85 L 379.82,492.25 L 379.79,490.05 L 379.73,486.31 L 379.70,484.56 L 379.63,481.83 L 379.61,481.21 L 379.57,480.19 L 379.56,479.72 L 379.52,478.99 L 379.50,478.67 L 379.47,478.35 L 379.52,478.61 L 379.60,479.59 L 379.63,480.35 L 379.71,482.03 L 379.74,483.10 L 379.81,485.39 L 379.84,486.74 L 379.90,489.56 L 379.92,491.15 L 379.97,494.42 L 379.99,496.20 L 380.02,499.84 L 380.03,501.77 L 380.05,505.70 L 380.06,507.75 L 380.15,519.62 L 380.20,523.31 L 380.23,525.04 L 380.30,528.41 L 380.34,529.94 L 380.42,532.88 L 380.47,534.17 L 380.57,536.60 L 380.62,537.60 L 380.72,539.43 L 380.78,540.09 L 380.89,541.23 L 380.94,541.50 L 381.20,542.69 L 381.34,543.28 L 381.40,543.48 L 381.50,543.80 L 381.55,543.85 L 381.63,543.88 L 381.66,543.78 L 381.72,543.49 L 381.74,543.23 L 381.79,542.62 L 381.81,542.19 L 381.84,541.23 L 381.86,540.62 L 381.89,539.30 L 381.90,538.50 L 382.01,535.42 L 382.14,533.95 L 382.23,533.51 L 382.43,532.80 L 382.55,532.72 L 382.83,532.74 L 383.00,533.00 L 383.47,533.60 L 383.70,533.71 L 383.77,533.62 L 383.90,533.32 L 383.93,533.01 L 383.98,532.29 L 383.98,531.75 L 384.00,529.00 L 384.28,529.00 M 296.85,575.91 L 296.67,576.26 L 296.26,576.86 L 295.98,577.03 L 295.98,577.18 L 296.13,577.21 L 296.02,577.20 L 294.36,577.16 L 291.68,577.08 L 290.44,577.03 L 288.55,576.93 L 287.69,576.88 L 286.48,576.77 L 285.96,576.71 L 285.35,576.58 L 285.11,576.52 L 285.00,576.38 L 285.00,576.12 L 285.33,575.73 L 285.56,575.55 L 286.41,575.30 L 286.91,575.20 L 288.38,575.07 L 291.38,575.00 L 297.05,575.00 M 634.02,574.89 L 635.25,575.13 L 635.87,575.17 L 637.57,575.27 L 640.00,575.41 L 640.69,575.45 L 641.77,575.80 L 642.50,576.53 L 642.50,576.57 L 641.75,576.65 L 641.25,576.68 L 639.52,576.75 L 638.53,576.79 L 635.82,576.86 L 634.66,576.88 L 634.75,576.61 L 634.57,576.43 L 633.85,575.32 L 633.58,574.55 M 533.41,534.70 L 533.49,535.42 L 533.63,536.95 L 533.69,537.83 L 533.81,539.67 L 533.85,540.68 L 534.00,544.94 L 534.03,547.28 L 534.05,552.05 L 534.02,554.46 L 533.94,559.25 L 533.90,560.32 L 533.94,559.20 L 534.02,554.41 L 534.04,552.00 L 534.01,547.22 L 533.98,544.88 L 533.83,540.62 L 533.79,539.62 L 533.68,537.79 L 533.62,536.91 L 533.48,535.38 L 533.40,534.66 L 533.23,533.50 L 532.94,532.25 L 533.24,533.52 M 532.55,573.96 L 532.44,574.05 L 532.37,574.08 L 532.49,574.01 L 532.55,573.96 M 359.53,497.20 L 359.74,497.92 L 359.93,498.93 L 360.05,499.64 L 360.29,501.18 L 360.42,502.09 L 360.68,503.99 L 360.81,505.02 L 361.74,512.50 L 362.00,506.00 L 362.08,504.13 L 362.14,503.12 L 362.16,502.73 L 362.22,502.02 L 362.25,501.78 L 362.31,501.36 L 362.35,501.25 L 362.50,501.10 L 362.61,501.40 L 362.84,502.24 L 363.00,503.00 L 363.36,504.30 L 363.46,504.42 L 363.50,504.38 L 363.58,504.23 L 363.61,504.06 L 363.67,503.64 L 363.70,503.33 L 363.74,502.73 L 363.51,508.59 L 363.46,509.86 L 363.38,512.77 L 363.34,514.28 L 363.29,517.62 L 363.24,521.03 L 363.21,528.61 L 363.21,532.45 L 363.29,540.20 L 363.32,542.10 L 363.39,545.77 L 363.52,550.97 L 364.08,569.14 L 364.00,567.72 L 363.91,566.06 L 363.87,565.12 L 363.79,563.17 L 363.75,562.08 L 363.66,559.81 L 363.62,558.55 L 363.52,555.94 L 363.47,554.50 L 363.25,548.66 L 363.11,545.14 L 363.04,543.56 L 362.90,540.53 L 362.83,539.20 L 362.70,536.65 L 362.64,535.57 L 362.51,533.51 L 362.45,532.67 L 362.33,531.10 L 362.27,530.50 L 362.15,529.42 L 362.09,529.06 L 361.97,528.47 L 361.91,528.36 L 361.80,528.25 L 361.74,528.37 L 361.63,528.75 L 361.57,529.11 L 361.46,529.97 L 361.41,530.58 L 361.30,531.91 L 361.24,532.76 L 361.13,534.58 L 361.08,535.67 L 360.97,537.97 L 360.91,539.29 L 360.80,542.07 L 360.74,543.63 L 360.63,546.89 L 360.57,548.69 L 360.42,553.71 L 360.32,556.72 L 360.28,558.07 L 360.18,560.68 L 360.14,561.84 L 360.04,564.06 L 359.99,565.04 L 359.89,566.91 L 359.83,567.72 L 359.71,569.27 L 359.68,569.54 L 359.74,568.39 L 359.76,567.71 L 359.81,566.13 L 359.83,565.30 L 359.87,563.43 L 359.89,562.45 L 359.92,560.25 L 359.93,559.11 L 359.95,556.56 L 359.96,555.24 L 359.97,552.32 L 359.98,550.81 L 359.99,547.49 L 359.99,545.77 L 360.00,542.02 L 360.00,535.89 L 360.00,533.22 L 359.98,528.08 L 359.97,525.55 L 359.93,520.79 L 359.91,518.47 L 359.85,514.19 L 359.82,512.12 L 359.75,508.42 L 359.71,506.66 L 359.62,503.67 L 359.57,502.26 L 359.47,500.07 L 359.42,499.08 L 359.31,497.79 L 359.16,497.11 L 359.43,497.10 M 630.52,542.79 L 630.84,544.86 L 631.40,548.83 L 631.66,550.78 L 632.09,554.47 L 632.29,556.29 L 632.59,559.70 L 632.73,561.36 L 632.90,564.46 L 632.90,564.71 L 632.80,563.43 L 632.71,562.83 L 632.50,561.78 L 632.37,561.47 L 632.08,561.00 L 631.91,561.00 L 631.47,560.69 L 631.29,560.16 L 631.25,559.74 L 631.23,558.78 L 631.27,558.14 L 631.40,556.74 L 631.52,555.87 L 631.78,553.54 L 631.84,552.43 L 631.80,552.07 L 631.69,551.50 L 631.57,551.40 L 631.29,551.32 L 631.09,551.45 L 630.60,551.55 L 630.40,551.33 L 630.36,551.07 L 630.32,550.44 L 630.36,549.96 L 630.47,548.90 L 630.58,548.19 L 630.67,546.38 L 630.61,544.74 L 630.51,543.73 L 630.28,541.58 L 630.11,540.33 L 629.96,539.31 M 298.92,544.78 L 298.87,546.16 L 298.78,548.96 L 298.75,550.34 L 298.70,553.05 L 298.71,554.25 L 298.64,557.65 L 298.52,559.64 L 298.44,560.43 L 298.26,561.87 L 298.15,562.31 L 297.92,563.00 L 297.79,563.00 L 297.46,563.52 L 297.34,564.06 L 297.92,555.50 L 298.07,553.87 L 298.35,550.80 L 298.49,549.30 L 298.74,546.50 L 298.86,545.13 L 298.97,543.73 M 595.44,472.49 L 595.58,474.60 L 595.82,479.04 L 595.93,481.30 L 596.14,486.07 L 596.23,488.51 L 596.39,493.67 L 596.47,496.31 L 596.59,501.91 L 596.65,504.77 L 596.75,510.86 L 596.79,513.97 L 596.85,520.60 L 596.88,523.98 L 596.92,531.20 L 596.95,542.75 L 596.87,527.02 L 596.75,516.83 L 596.67,511.94 L 596.48,502.32 L 596.36,497.78 L 596.10,488.91 L 595.95,484.81 L 595.79,480.77 L 595.71,478.85 L 595.54,475.06 L 595.45,473.28 L 595.34,471.19 M 348.47,528.69 L 348.67,531.05 L 348.46,528.68 M 493.98,529.00 L 470.00,529.00 L 470.00,530.57 L 469.98,530.39 L 469.82,529.65 L 469.44,528.37 L 469.15,527.99 L 468.51,527.36 L 468.08,527.21 L 467.14,527.01 L 466.62,527.00 L 493.98,527.00 M 498.35,527.53 L 499.07,527.61 L 499.47,527.65 L 500.49,527.72 L 501.03,527.75 L 502.30,527.81 L 503.62,527.86 L 506.79,527.94 L 508.43,527.96 L 511.99,527.98 L 512.47,527.99 L 512.04,527.99 L 508.48,527.97 L 506.83,527.94 L 503.65,527.88 L 502.34,527.83 L 501.07,527.77 L 500.53,527.74 L 499.51,527.67 L 499.11,527.64 L 498.38,527.56 L 498.14,527.51 L 497.76,527.42 L 497.72,527.39 L 498.11,527.48 M 347.55,521.96 L 348.18,526.41 L 348.36,527.82 L 348.17,526.39 L 347.55,521.94 M 532.98,524.14 L 532.92,524.28 L 532.98,524.14 M 492.88,433.71 L 493.17,434.14 L 493.68,434.94 L 493.81,435.29 L 494.00,435.95 L 494.00,436.26 L 494.28,437.40 L 494.70,437.69 L 494.96,437.52 L 495.32,437.55 L 495.47,437.84 L 495.50,438.12 L 495.54,438.76 L 495.52,439.19 L 495.43,440.14 L 495.35,440.72 L 495.24,441.75 L 495.17,442.74 L 495.14,443.39 L 495.07,444.78 L 495.03,445.61 L 494.97,447.35 L 494.94,448.35 L 494.87,450.43 L 494.84,451.58 L 494.78,453.96 L 494.75,455.26 L 494.63,460.70 L 494.58,463.77 L 494.47,470.13 L 494.42,473.56 L 494.33,480.60 L 494.28,484.29 L 494.13,499.46 L 494.08,507.20 L 494.03,514.92 L 494.01,518.71 L 494.00,522.47 L 494.00,511.75 L 494.00,496.50 L 461.04,496.50 L 461.04,493.87 L 463.75,494.18 L 464.04,494.22 L 464.84,494.27 L 465.27,494.30 L 466.34,494.34 L 467.45,494.38 L 470.28,494.42 L 471.77,494.43 L 475.08,494.42 L 476.76,494.41 L 480.20,494.37 L 481.90,494.34 L 485.13,494.26 L 486.69,494.21 L 489.36,494.10 L 490.60,494.04 L 492.37,493.91 L 492.75,493.87 L 493.26,493.80 L 493.48,493.76 L 493.65,493.69 L 493.69,493.65 L 493.76,492.97 L 493.80,492.54 L 493.86,491.15 L 493.89,490.37 L 493.94,488.34 L 493.97,487.26 L 494.01,484.67 L 494.03,483.32 L 494.05,480.26 L 494.07,478.68 L 494.08,475.23 L 494.08,473.47 L 494.08,469.71 L 494.06,463.81 L 494.05,462.04 L 494.03,458.82 L 494.02,457.26 L 494.00,454.43 L 493.99,453.06 L 493.96,450.59 L 493.95,449.40 L 493.92,447.26 L 493.91,446.24 L 493.87,444.41 L 493.85,443.53 L 493.80,441.98 L 493.76,440.50 L 493.62,438.26 L 493.55,437.24 L 493.36,435.75 L 493.25,435.08 L 492.98,434.14 L 492.25,433.00 M 612.31,465.00 L 615.45,475.99 L 616.98,481.45 L 619.80,492.18 L 621.16,497.50 L 623.62,507.82 L 624.80,512.91 L 625.16,514.62 L 625.12,514.45 L 623.14,505.83 L 622.03,501.29 L 619.73,492.07 L 618.49,487.36 L 615.97,477.92 L 614.65,473.24 L 612.05,464.18 M 345.05,508.10 L 345.04,508.04 L 347.22,505.92 M 532.73,497.33 L 532.81,497.38 L 533.08,497.81 L 533.25,498.32 L 533.32,498.68 L 533.60,500.37 L 533.70,501.53 L 533.87,504.01 L 533.93,505.44 L 533.99,507.60 L 533.92,505.48 L 533.86,504.06 L 533.68,501.57 L 533.57,500.42 L 533.28,498.71 L 533.21,498.35 L 533.04,497.82 L 532.75,497.37 L 532.68,497.32 M 348.91,504.28 L 349.27,503.94 L 349.92,503.37 M 351.90,501.63 L 352.45,501.14 L 353.33,500.47 M 364.23,490.24 L 363.82,500.70 L 363.83,500.55 L 363.86,499.24 L 363.87,498.47 L 364.00,490.44 L 364.35,490.15 M 354.52,499.61 L 353.60,500.27 L 354.63,499.48 L 355.62,498.83 L 355.74,498.76 M 497.04,477.77 L 497.07,480.98 L 497.09,482.53 L 497.12,485.31 L 497.14,486.63 L 497.18,488.90 L 497.21,489.96 L 497.25,491.64 L 497.28,492.40 L 497.33,493.41 L 497.42,494.08 L 497.44,494.11 L 497.85,494.16 L 498.11,494.19 L 498.95,494.23 L 499.41,494.25 L 500.62,494.29 L 501.27,494.30 L 502.80,494.33 L 504.41,494.35 L 508.40,494.36 L 515.17,494.32 L 531.61,494.15 L 531.29,494.32 L 530.73,494.38 L 529.43,494.43 L 528.47,494.41 L 526.79,494.39 L 526.12,494.43 L 526.00,494.47 L 525.91,494.57 L 526.07,494.64 L 526.55,494.80 L 527.00,494.91 L 527.21,495.04 L 527.05,495.13 L 526.83,495.18 L 526.30,495.28 L 525.91,495.34 L 525.05,495.44 L 524.51,495.49 L 523.35,495.60 L 522.66,495.65 L 521.24,495.76 L 520.43,495.81 L 516.99,496.00 L 515.00,496.08 L 500.50,496.65 L 516.06,496.65 L 522.20,496.71 L 525.88,496.80 L 527.40,496.86 L 527.86,496.89 L 526.80,496.85 L 525.12,496.80 L 521.05,496.76 L 514.25,496.82 L 497.09,497.13 L 497.07,493.42 L 497.06,490.46 L 497.04,484.45 L 497.04,481.33 L 497.04,476.77 M 337.63,493.00 L 337.62,493.00 L 337.43,492.81 M 337.27,492.66 L 337.27,492.66 L 337.24,492.59 M 332.49,476.05 L 333.06,478.27 L 333.33,479.34 L 333.84,481.27 L 334.08,482.21 L 334.52,483.87 L 334.74,484.66 L 335.12,486.07 L 335.49,487.42 L 336.08,489.43 L 336.23,489.92 L 336.08,489.42 L 335.51,487.48 L 335.15,486.20 L 334.40,483.42 L 333.94,481.68 L 333.47,479.88 L 333.21,478.88 L 332.68,476.83 L 332.40,475.70 L 332.18,474.83 M 348.60,484.89 L 347.91,485.46 L 345.01,487.83 L 343.72,488.83 L 345.02,487.82 L 347.92,485.45 L 348.60,484.88 L 349.83,483.81 L 351.35,482.40 L 349.83,483.81 M 527.32,459.73 L 528.40,460.69 L 527.32,459.73 M 525.90,458.48 L 527.04,459.48 L 525.90,458.48 M 512.49,447.76 L 515.06,449.75 L 516.24,450.67 L 518.52,452.46 L 519.55,453.29 L 521.56,454.90 L 522.47,455.65 L 524.98,457.72 L 522.47,455.65 L 521.56,454.90 L 519.55,453.29 L 518.52,452.46 L 516.24,450.67 L 515.06,449.75 L 512.49,447.75 M 315.41,451.86 L 315.58,452.64 L 315.38,453.07 L 315.58,452.63 L 315.40,451.83 L 315.33,451.73 M 320.20,430.59 L 320.32,430.75 L 320.67,431.54 L 320.86,432.01 L 321.34,433.41 L 321.59,434.18 L 321.77,434.78 L 321.58,434.24 L 321.53,434.20 L 320.65,434.24 L 319.87,434.82 L 319.51,435.32 L 318.82,436.64 L 318.31,437.92 L 318.05,438.69 L 316.99,442.13 L 316.53,443.97 L 316.47,444.21 L 316.79,442.71 L 317.28,440.41 L 318.39,435.84 L 318.66,434.76 L 319.20,432.86 L 319.93,430.59 L 319.98,430.43 M 582.74,399.52 L 584.86,408.37 L 585.37,410.51 L 586.31,414.51 L 586.77,416.47 L 587.59,420.03 L 587.98,421.74 L 588.65,424.75 L 589.46,428.50 L 590.21,432.15 L 591.51,439.16 L 591.87,441.22 L 591.71,440.40 L 590.87,436.31 L 590.39,434.06 L 589.41,429.42 L 588.87,426.93 L 587.76,421.87 L 587.18,419.23 L 585.99,413.87 L 585.37,411.13 L 582.84,400.03 L 582.33,397.86 M 533.74,399.01 L 532.00,399.04 L 531.28,399.06 L 529.93,399.11 L 529.39,399.15 L 528.38,399.23 L 527.99,399.29 L 526.71,399.55 L 526.41,399.76 L 526.00,400.23 L 526.00,400.56 L 525.71,401.48 L 525.29,401.68 L 525.02,401.51 L 524.80,401.69 L 524.66,402.11 L 524.59,402.48 L 524.46,403.31 L 524.40,403.87 L 524.28,405.09 L 524.23,405.84 L 524.13,407.43 L 524.08,408.36 L 523.99,410.31 L 523.95,411.42 L 523.88,413.72 L 523.85,415.00 L 523.79,417.63 L 523.77,419.07 L 523.50,437.23 L 521.00,434.76 L 519.44,433.31 L 517.94,431.98 L 517.03,431.19 L 513.06,427.78 L 517.03,431.19 L 517.94,431.98 L 519.44,433.31 L 521.00,434.76 L 523.50,437.23 L 523.77,418.12 L 524.04,399.00 L 536.83,399.00 M 462.94,410.72 L 463.49,410.88 L 463.86,411.04 L 464.64,411.44 L 465.14,411.73 L 466.20,412.39 L 466.85,412.83 L 468.23,413.78 L 469.05,414.37 L 470.79,415.63 L 471.81,416.39 L 473.95,418.00 L 475.19,418.94 L 480.31,422.86 L 483.23,425.14 L 484.47,426.12 L 486.79,428.00 L 487.75,428.80 L 488.04,429.05 L 487.73,428.79 L 486.37,427.70 L 484.96,426.57 L 481.65,423.97 L 476.28,419.83 L 474.94,418.81 L 472.62,417.07 L 471.52,416.24 L 469.63,414.86 L 468.73,414.22 L 467.24,413.17 L 466.53,412.69 L 465.37,411.96 L 464.84,411.63 L 463.98,411.18 L 463.59,410.99 L 462.99,410.80 L 462.72,410.73 L 462.33,410.77 L 461.94,411.06 L 461.92,411.10 L 461.92,411.10 L 461.95,411.04 L 462.33,410.74 L 462.69,410.68 M 569.26,346.74 L 569.42,347.22 L 569.89,348.84 L 570.15,349.75 L 570.49,351.00 L 570.48,350.97 L 570.42,350.87 L 569.70,350.46 L 569.01,350.44 L 568.66,350.58 L 568.09,351.37 L 567.66,352.42 L 567.44,353.13 L 567.00,354.68 L 566.79,355.57 L 566.42,357.16 L 566.61,356.03 L 566.82,354.76 L 567.27,352.32 L 567.50,351.14 L 567.94,349.11 L 568.15,348.17 L 568.52,346.85 L 568.61,346.58 L 568.76,346.22 L 568.95,346.00 L 569.00,346.00 M 475.03,648.69 L 473.89,648.69 L 471.67,648.69 L 473.89,648.69 L 475.03,648.69 L 477.53,648.71 L 485.84,648.82 L 477.53,648.71 M 496.57,573.79 L 496.10,573.79 L 495.80,573.87 L 494.44,574.38 L 494.00,574.67 L 494.00,549.02 L 494.00,549.41 L 494.02,552.22 L 494.03,553.53 L 494.05,556.08 L 494.07,557.24 L 494.09,559.51 L 494.11,560.52 L 494.15,562.47 L 494.17,563.32 L 494.21,564.92 L 494.23,565.59 L 494.28,566.82 L 494.31,567.29 L 494.36,568.12 L 494.39,568.38 L 494.46,568.79 L 494.49,568.82 L 494.60,568.52 L 494.67,567.92 L 494.70,567.45 L 494.78,566.38 L 494.81,565.69 L 494.88,564.21 L 494.91,563.33 L 494.98,561.49 L 495.01,560.44 L 495.07,558.29 L 495.09,557.11 L 495.19,552.16 L 495.22,549.42 L 495.43,529.50 L 496.00,549.00 L 496.57,568.50 L 497.00,529.00 L 497.00,574.02 M 565.43,366.89 L 565.39,366.82 L 565.44,366.91 L 565.60,367.66 L 565.41,368.07 L 565.60,367.65 Z" fill="rgba(0,0,0,1)"/>
<path d="M 429.52,653.86 L 428.15,653.72 L 425.59,653.39 L 424.37,653.22 L 422.28,652.86 L 421.32,652.67 L 419.93,652.32 L 418.90,651.84 L 418.81,651.69 L 418.38,651.37 L 418.14,651.20 L 417.45,650.86 L 414.88,649.97 L 414.63,649.91 L 414.65,649.80 L 414.74,649.74 L 415.42,649.65 L 415.84,649.60 L 417.13,649.52 L 417.85,649.48 L 419.73,649.42 L 420.73,649.39 L 423.14,649.35 L 424.41,649.33 L 427.33,649.31 L 428.84,649.30 L 432.22,649.30 L 437.75,649.32 L 441.36,649.34 L 447.96,649.35 L 449.54,649.34 L 452.44,649.33 L 453.85,649.32 L 456.36,649.29 L 457.56,649.27 L 459.61,649.23 L 460.57,649.21 L 462.08,649.15 L 462.76,649.13 L 463.67,649.06 L 464.25,648.96 L 464.27,648.92 L 464.74,648.86 L 465.04,648.83 L 466.03,648.78 L 466.59,648.76 L 468.05,648.73 L 468.83,648.71 L 470.69,648.70 L 471.67,648.69 L 473.89,648.69 L 475.03,648.69 L 477.53,648.71 L 485.84,648.82 L 488.77,648.88 L 494.05,649.04 L 495.31,649.09 L 497.60,649.18 L 498.70,649.23 L 500.66,649.34 L 501.59,649.39 L 503.14,649.51 L 503.87,649.56 L 504.98,649.68 L 505.47,649.73 L 506.07,649.85 L 506.34,650.01 L 506.11,650.22 L 505.12,650.63 L 504.54,650.83 L 502.89,651.22 L 501.98,651.41 L 499.74,651.78 L 498.56,651.96 L 495.81,652.31 L 494.38,652.48 L 491.21,652.80 L 489.57,652.95 L 486.04,653.24 L 482.44,653.52 L 474.52,653.96 L 470.49,654.16 L 462.17,654.43 L 458.02,654.54 L 449.93,654.60 L 447.95,654.60 L 444.15,654.56 L 442.27,654.53 L 438.74,654.43 L 437.01,654.37 L 433.82,654.19 L 432.28,654.10 M 388.00,644.41 L 384.84,644.05 L 377.98,643.27 L 376.35,643.09 L 373.46,642.76 L 370.04,642.38 L 369.05,642.27 L 367.48,642.07 L 366.76,641.97 L 365.77,641.78 L 365.34,641.69 L 364.94,641.53 L 364.82,641.45 L 365.05,641.29 L 365.25,641.22 L 366.14,641.09 L 366.67,641.02 L 368.25,640.90 L 369.13,640.84 L 371.43,640.74 L 372.67,640.69 L 375.71,640.60 L 377.32,640.55 L 381.14,640.48 L 383.14,640.44 L 387.76,640.37 L 390.17,640.34 L 395.62,640.28 L 398.45,640.26 L 404.75,640.21 L 408.02,640.19 L 415.21,640.16 L 418.92,640.14 L 427.04,640.12 L 431.21,640.11 L 440.27,640.09 L 454.95,640.07 L 459.21,640.07 L 467.16,640.06 L 471.05,640.06 L 478.27,640.06 L 481.79,640.07 L 488.30,640.07 L 491.48,640.08 L 497.32,640.09 L 500.16,640.10 L 505.35,640.12 L 507.87,640.13 L 512.44,640.16 L 514.66,640.17 L 518.64,640.21 L 520.57,640.22 L 523.99,640.26 L 525.63,640.29 L 528.53,640.34 L 529.91,640.36 L 532.29,640.42 L 533.43,640.45 L 535.34,640.51 L 536.24,640.55 L 537.70,640.62 L 538.38,640.66 L 539.43,640.75 L 539.90,640.79 L 540.56,640.88 L 540.84,640.93 L 541.13,641.04 L 541.20,641.20 L 541.03,641.37 L 540.08,641.78 L 539.52,641.99 L 537.92,642.46 L 537.07,642.69 L 535.04,643.15 L 531.75,643.78 L 531.37,643.84 L 530.33,643.96 L 529.76,644.02 L 528.34,644.14 L 527.59,644.19 L 525.82,644.30 L 524.89,644.35 L 522.80,644.46 L 521.72,644.51 L 519.33,644.60 L 518.10,644.65 L 515.43,644.74 L 512.70,644.83 L 506.53,644.98 L 503.33,645.06 L 496.38,645.19 L 492.83,645.25 L 485.29,645.35 L 481.47,645.39 L 473.56,645.47 L 469.57,645.50 L 461.48,645.54 L 453.38,645.58 L 437.47,645.56 L 433.58,645.54 L 426.13,645.49 L 422.47,645.46 L 415.63,645.38 L 412.30,645.34 L 406.27,645.22 L 404.82,645.19 L 402.11,645.12 L 400.79,645.08 L 398.35,645.00 L 397.16,644.96 L 395.02,644.88 L 393.99,644.83 L 392.16,644.73 L 391.29,644.69 L 389.81,644.58 L 389.11,644.53 M 348.50,634.92 L 347.40,634.67 L 345.01,634.12 L 344.45,633.99 L 343.44,633.76 L 342.25,633.49 L 341.67,633.35 L 340.82,633.10 L 340.44,632.98 L 340.04,632.76 L 339.90,632.65 L 340.01,632.46 L 340.13,632.36 L 340.82,632.19 L 341.25,632.11 L 342.58,631.96 L 343.33,631.88 L 345.36,631.75 L 346.47,631.69 L 349.28,631.58 L 350.78,631.53 L 354.41,631.43 L 356.33,631.39 L 360.86,631.31 L 363.24,631.28 L 368.72,631.22 L 371.58,631.19 L 378.08,631.14 L 379.77,631.13 L 383.36,631.11 L 385.18,631.10 L 389.04,631.08 L 391.01,631.07 L 395.15,631.05 L 397.26,631.05 L 401.69,631.04 L 403.95,631.03 L 408.68,631.02 L 411.09,631.01 L 416.13,631.01 L 418.69,631.00 L 424.05,631.00 L 426.77,630.99 L 432.45,630.99 L 435.34,630.99 L 441.35,630.98 L 450.75,630.98 L 458.52,630.98 L 473.53,630.96 L 477.23,630.95 L 484.44,630.94 L 488.02,630.93 L 494.96,630.90 L 498.40,630.89 L 505.04,630.86 L 508.32,630.85 L 514.61,630.81 L 517.71,630.80 L 523.62,630.76 L 526.53,630.74 L 532.02,630.70 L 534.71,630.68 L 539.75,630.63 L 542.21,630.61 L 546.76,630.56 L 548.97,630.53 L 552.98,630.48 L 554.92,630.45 L 558.37,630.39 L 560.02,630.37 L 562.87,630.31 L 564.21,630.28 L 566.42,630.22 L 567.44,630.18 L 568.97,630.12 L 570.46,630.02 L 571.69,629.89 L 573.95,629.68 L 575.04,629.57 L 576.85,629.43 L 577.69,629.36 L 578.85,629.30 L 579.65,629.32 L 579.90,629.56 L 579.65,630.20 L 579.41,630.54 L 578.31,631.31 L 577.67,631.70 L 575.85,632.51 L 572.47,633.69 L 571.78,633.89 L 570.10,634.24 L 569.62,634.32 L 568.49,634.47 L 567.89,634.54 L 566.44,634.66 L 565.67,634.73 L 563.81,634.84 L 562.82,634.89 L 560.46,634.99 L 559.22,635.03 L 556.28,635.11 L 554.73,635.15 L 551.13,635.22 L 549.24,635.25 L 544.88,635.31 L 542.60,635.34 L 537.41,635.39 L 534.69,635.41 L 528.57,635.45 L 525.39,635.47 L 518.25,635.50 L 516.40,635.51 L 512.49,635.52 L 510.50,635.53 L 506.31,635.54 L 504.18,635.55 L 499.70,635.56 L 497.42,635.57 L 492.63,635.58 L 490.19,635.59 L 485.09,635.60 L 482.50,635.60 L 477.07,635.61 L 474.31,635.62 L 468.54,635.63 L 459.50,635.65 L 451.82,635.66 L 437.17,635.67 L 433.59,635.67 L 426.63,635.66 L 423.18,635.66 L 416.54,635.65 L 413.27,635.64 L 406.98,635.63 L 403.88,635.62 L 397.97,635.60 L 395.06,635.59 L 389.56,635.56 L 386.87,635.55 L 381.81,635.52 L 379.34,635.50 L 374.75,635.47 L 372.51,635.45 L 368.42,635.41 L 366.44,635.39 L 362.88,635.34 L 361.17,635.32 L 358.17,635.27 L 356.74,635.24 L 354.33,635.19 L 353.20,635.16 L 351.41,635.10 L 350.59,635.08 L 349.45,635.01 L 348.96,634.98 M 328.00,626.04 L 326.20,625.80 L 323.41,625.31 L 322.13,625.07 L 320.31,624.55 L 319.50,624.28 L 318.55,623.69 L 318.00,622.68 L 318.00,622.63 L 318.39,622.52 L 318.66,622.47 L 319.61,622.37 L 320.16,622.33 L 321.71,622.24 L 322.56,622.20 L 324.75,622.13 L 325.93,622.09 L 328.80,622.03 L 330.33,622.00 L 333.92,621.94 L 335.81,621.91 L 340.16,621.87 L 342.44,621.84 L 347.60,621.81 L 350.28,621.79 L 356.28,621.76 L 359.39,621.75 L 366.27,621.72 L 369.82,621.72 L 377.62,621.70 L 381.65,621.70 L 390.41,621.69 L 394.92,621.69 L 404.69,621.69 L 409.71,621.69 L 420.52,621.70 L 423.29,621.71 L 429.04,621.71 L 431.95,621.72 L 437.97,621.72 L 441.01,621.73 L 447.31,621.74 L 457.08,621.76 L 460.48,621.76 L 467.05,621.78 L 470.29,621.78 L 476.56,621.80 L 479.66,621.80 L 485.63,621.82 L 488.58,621.82 L 494.27,621.84 L 497.08,621.85 L 502.49,621.86 L 505.15,621.87 L 510.28,621.89 L 512.81,621.89 L 517.67,621.91 L 520.07,621.92 L 524.67,621.94 L 529.20,621.96 L 537.49,622.00 L 541.51,622.02 L 548.83,622.06 L 552.37,622.08 L 558.74,622.13 L 561.82,622.16 L 567.31,622.21 L 569.95,622.24 L 574.60,622.30 L 576.83,622.33 L 580.69,622.40 L 582.52,622.43 L 585.63,622.51 L 587.10,622.55 L 589.51,622.63 L 590.64,622.67 L 592.39,622.76 L 593.20,622.80 L 594.35,622.90 L 594.85,622.95 L 595.45,623.06 L 595.76,623.23 L 595.70,623.40 L 595.33,623.78 L 595.11,623.97 L 594.46,624.37 L 591.93,625.40 L 591.80,625.44 L 590.83,625.51 L 590.24,625.54 L 588.38,625.61 L 587.35,625.64 L 584.66,625.71 L 583.22,625.74 L 579.76,625.80 L 577.94,625.83 L 573.76,625.89 L 571.59,625.92 L 566.77,625.98 L 564.28,626.01 L 558.86,626.06 L 556.09,626.09 L 550.14,626.14 L 547.10,626.16 L 540.68,626.21 L 537.41,626.23 L 530.58,626.28 L 527.12,626.30 L 519.93,626.34 L 516.30,626.36 L 508.81,626.40 L 501.27,626.43 L 485.56,626.49 L 477.65,626.52 L 461.55,626.56 L 453.49,626.58 L 437.48,626.61 L 429.53,626.62 L 414.08,626.62 L 410.27,626.62 L 402.85,626.62 L 399.18,626.62 L 392.07,626.61 L 388.55,626.61 L 381.81,626.59 L 378.48,626.59 L 372.16,626.57 L 369.06,626.56 L 363.23,626.53 L 360.37,626.52 L 355.09,626.49 L 352.51,626.47 L 347.83,626.44 L 345.57,626.42 L 341.55,626.38 L 339.63,626.35 L 336.34,626.31 L 334.79,626.28 L 332.29,626.23 L 331.14,626.20 L 329.47,626.14 L 328.76,626.11 M 308.72,616.89 L 307.46,616.71 L 305.44,616.37 L 304.51,616.20 L 303.13,615.88 L 302.52,615.72 L 301.79,615.42 L 301.51,615.28 L 301.43,615.00 L 301.47,614.87 L 302.03,614.62 L 302.39,614.49 L 303.60,614.26 L 304.29,614.15 L 306.14,613.94 L 309.65,613.66 L 310.07,613.63 L 311.64,613.58 L 312.55,613.56 L 315.07,613.51 L 316.44,613.49 L 319.83,613.45 L 321.63,613.43 L 325.83,613.39 L 328.03,613.37 L 332.99,613.33 L 335.55,613.32 L 341.19,613.29 L 344.08,613.27 L 350.34,613.25 L 353.54,613.24 L 360.35,613.21 L 363.82,613.20 L 371.12,613.19 L 374.83,613.18 L 382.56,613.16 L 386.47,613.16 L 394.56,613.15 L 398.64,613.14 L 407.03,613.14 L 415.48,613.13 L 433.01,613.13 L 441.83,613.14 L 459.71,613.15 L 468.65,613.16 L 486.37,613.19 L 495.17,613.20 L 512.22,613.25 L 516.41,613.26 L 524.59,613.28 L 528.64,613.30 L 536.48,613.32 L 540.35,613.34 L 547.77,613.37 L 551.43,613.38 L 558.38,613.42 L 561.79,613.44 L 568.21,613.47 L 571.34,613.49 L 577.16,613.53 L 579.98,613.55 L 585.13,613.60 L 587.61,613.62 L 592.03,613.66 L 594.14,613.69 L 597.77,613.73 L 599.47,613.76 L 602.24,613.81 L 603.51,613.83 L 605.35,613.89 L 607.00,613.97 L 608.03,614.07 L 609.78,614.26 L 610.59,614.35 L 611.81,614.52 L 612.34,614.60 L 612.89,614.72 L 612.83,614.84 L 612.38,614.88 L 611.53,615.32 L 610.75,616.25 L 610.73,616.31 L 610.32,616.43 L 610.05,616.48 L 609.10,616.59 L 608.55,616.64 L 607.00,616.74 L 606.14,616.78 L 603.94,616.87 L 602.75,616.91 L 599.84,616.99 L 598.29,617.02 L 594.62,617.09 L 592.68,617.13 L 588.19,617.19 L 585.84,617.22 L 580.47,617.27 L 577.68,617.29 L 571.38,617.34 L 568.12,617.36 L 560.84,617.40 L 557.08,617.42 L 548.76,617.45 L 546.62,617.46 L 542.12,617.48 L 539.84,617.48 L 535.06,617.50 L 532.64,617.50 L 527.58,617.52 L 525.01,617.52 L 519.66,617.53 L 516.95,617.54 L 511.30,617.55 L 508.43,617.55 L 502.47,617.56 L 499.46,617.57 L 493.19,617.58 L 490.01,617.58 L 483.42,617.59 L 480.08,617.59 L 473.17,617.60 L 462.42,617.61 L 452.25,617.61 L 432.59,617.61 L 427.74,617.61 L 418.30,617.60 L 413.61,617.59 L 404.53,617.58 L 400.03,617.57 L 391.36,617.56 L 387.08,617.55 L 378.87,617.52 L 374.83,617.51 L 367.14,617.48 L 363.37,617.47 L 356.25,617.44 L 352.77,617.42 L 346.28,617.39 L 343.11,617.37 L 337.30,617.33 L 334.48,617.31 L 329.39,617.27 L 326.94,617.24 L 322.63,617.20 L 320.58,617.18 L 317.11,617.13 L 315.48,617.10 L 312.90,617.05 L 311.72,617.02 L 310.07,616.97 L 309.37,616.94 M 300.00,608.01 L 297.73,607.91 L 293.34,607.66 L 291.20,607.54 L 287.39,607.27 L 286.50,607.20 L 284.89,607.07 L 284.12,607.00 L 282.81,606.87 L 282.20,606.80 L 281.24,606.68 L 280.25,606.51 L 279.46,606.33 L 278.28,605.87 L 277.76,605.64 L 277.19,605.14 L 276.98,604.90 L 277.06,604.43 L 277.99,603.83 L 278.06,603.81 L 278.85,603.78 L 279.34,603.77 L 280.92,603.77 L 281.80,603.77 L 284.07,603.78 L 285.29,603.79 L 288.17,603.83 L 289.67,603.85 L 293.07,603.91 L 294.82,603.94 L 298.64,604.01 L 300.59,604.05 L 304.74,604.14 L 311.24,604.29 L 312.35,604.32 L 315.29,604.37 L 316.88,604.40 L 320.73,604.45 L 322.76,604.47 L 327.46,604.52 L 329.90,604.54 L 335.39,604.58 L 338.22,604.60 L 344.42,604.63 L 347.61,604.65 L 354.48,604.68 L 357.99,604.70 L 365.46,604.73 L 369.27,604.74 L 377.28,604.76 L 381.35,604.77 L 389.83,604.79 L 394.13,604.80 L 403.04,604.81 L 407.54,604.82 L 416.80,604.82 L 421.47,604.83 L 431.03,604.83 L 440.65,604.83 L 460.51,604.82 L 490.75,604.77 L 495.81,604.76 L 505.75,604.74 L 510.68,604.73 L 520.33,604.72 L 525.11,604.71 L 534.41,604.70 L 539.02,604.70 L 547.92,604.70 L 552.32,604.70 L 560.79,604.70 L 564.96,604.70 L 572.93,604.71 L 576.85,604.71 L 584.27,604.72 L 587.91,604.73 L 594.75,604.75 L 598.08,604.75 L 604.27,604.77 L 607.27,604.78 L 612.76,604.81 L 615.42,604.82 L 620.16,604.85 L 622.43,604.86 L 626.38,604.90 L 628.25,604.91 L 631.35,604.95 L 632.79,604.97 L 634.99,605.01 L 635.98,605.03 L 637.24,605.07 L 638.00,605.14 L 638.00,605.32 L 637.83,605.65 L 637.71,605.81 L 637.20,606.11 L 636.89,606.25 L 635.92,606.50 L 635.36,606.63 L 633.78,606.85 L 632.91,606.96 L 630.62,607.15 L 629.36,607.25 L 626.22,607.41 L 624.52,607.49 L 620.40,607.63 L 619.30,607.66 L 616.90,607.73 L 615.66,607.76 L 612.97,607.81 L 611.58,607.84 L 608.59,607.89 L 607.05,607.92 L 603.73,607.97 L 602.03,607.99 L 598.38,608.03 L 596.51,608.05 L 592.50,608.09 L 590.45,608.11 L 586.08,608.15 L 583.84,608.16 L 579.09,608.20 L 576.66,608.21 L 571.50,608.24 L 568.87,608.25 L 563.29,608.28 L 560.45,608.29 L 554.44,608.32 L 551.38,608.33 L 544.93,608.35 L 541.64,608.36 L 534.72,608.38 L 531.20,608.39 L 523.80,608.40 L 520.04,608.41 L 512.14,608.43 L 508.13,608.44 L 499.72,608.45 L 495.45,608.46 L 486.52,608.47 L 472.50,608.50 L 461.77,608.51 L 440.83,608.53 L 435.65,608.53 L 425.50,608.53 L 420.46,608.53 L 410.63,608.53 L 405.75,608.53 L 396.30,608.52 L 391.63,608.52 L 382.61,608.50 L 378.16,608.50 L 369.64,608.48 L 365.44,608.47 L 357.48,608.45 L 353.57,608.44 L 346.22,608.41 L 342.62,608.40 L 335.95,608.37 L 332.70,608.36 L 326.75,608.32 L 323.87,608.31 L 318.72,608.27 L 316.24,608.25 L 311.94,608.21 L 309.90,608.19 L 306.50,608.15 L 304.92,608.12 L 302.49,608.08 L 301.40,608.05 M 644.00,602.00 L 644.00,601.73 L 644.29,601.29 L 645.00,601.00 L 645.27,601.00 L 645.71,601.29 L 646.00,602.00 L 646.00,602.27 L 645.71,602.71 L 645.00,603.00 L 644.73,603.00 L 644.29,602.71 L 644.11,602.52 M 266.72,599.11 L 265.82,598.96 L 264.46,598.70 L 263.87,598.57 L 263.23,598.33 L 263.01,598.22 L 263.21,598.01 L 263.43,597.91 L 264.60,597.72 L 264.95,597.68 L 265.87,597.59 L 266.36,597.55 L 267.56,597.48 L 268.20,597.44 L 269.70,597.37 L 270.49,597.33 L 272.31,597.26 L 273.26,597.23 L 275.41,597.17 L 276.52,597.14 L 279.02,597.08 L 280.31,597.06 L 283.17,597.01 L 284.64,596.98 L 287.87,596.93 L 289.54,596.91 L 293.17,596.87 L 295.03,596.85 L 299.07,596.81 L 301.14,596.79 L 305.60,596.76 L 307.89,596.74 L 312.79,596.71 L 315.30,596.70 L 320.66,596.67 L 323.40,596.66 L 329.23,596.64 L 332.20,596.63 L 338.52,596.61 L 341.74,596.60 L 348.56,596.58 L 352.04,596.57 L 359.38,596.56 L 363.11,596.55 L 370.99,596.54 L 374.99,596.54 L 383.42,596.53 L 387.70,596.52 L 396.69,596.52 L 401.25,596.51 L 410.82,596.51 L 415.68,596.51 L 425.85,596.50 L 431.01,596.50 L 441.79,596.50 L 458.67,596.50 L 463.12,596.50 L 471.76,596.50 L 476.03,596.50 L 484.33,596.50 L 488.44,596.50 L 496.40,596.51 L 500.33,596.51 L 507.96,596.51 L 511.73,596.52 L 519.03,596.52 L 522.64,596.53 L 529.61,596.53 L 533.05,596.54 L 539.71,596.55 L 542.99,596.55 L 549.33,596.56 L 552.46,596.56 L 558.48,596.58 L 561.46,596.58 L 567.17,596.59 L 569.99,596.60 L 575.41,596.62 L 578.08,596.62 L 583.19,596.64 L 585.72,596.65 L 590.54,596.66 L 592.91,596.67 L 597.45,596.69 L 599.68,596.70 L 603.92,596.72 L 606.01,596.73 L 609.98,596.75 L 611.93,596.76 L 615.62,596.79 L 617.43,596.80 L 620.85,596.82 L 624.20,596.85 L 630.10,596.90 L 632.92,596.93 L 637.80,596.99 L 640.11,597.03 L 643.98,597.10 L 645.80,597.13 L 648.71,597.21 L 650.05,597.25 L 652.04,597.33 L 652.92,597.37 L 654.02,597.46 L 654.70,597.61 L 654.76,597.77 L 654.51,598.10 L 654.33,598.27 L 653.66,598.59 L 653.28,598.74 L 652.26,599.02 L 650.40,599.36 L 650.30,599.37 L 649.85,599.40 L 649.58,599.41 L 648.79,599.43 L 648.35,599.44 L 647.22,599.47 L 646.62,599.48 L 645.17,599.50 L 644.40,599.51 L 642.64,599.53 L 641.72,599.54 L 639.67,599.56 L 638.60,599.57 L 636.25,599.59 L 635.04,599.60 L 632.42,599.62 L 629.73,599.63 L 623.56,599.66 L 620.35,599.68 L 613.22,599.71 L 609.55,599.72 L 601.55,599.75 L 597.45,599.76 L 588.66,599.78 L 584.18,599.79 L 574.71,599.80 L 569.89,599.81 L 559.81,599.83 L 554.70,599.83 L 544.11,599.84 L 538.76,599.85 L 527.74,599.85 L 522.18,599.86 L 510.83,599.86 L 505.12,599.86 L 493.52,599.86 L 481.88,599.86 L 458.25,599.85 L 446.43,599.84 L 422.98,599.81 L 417.16,599.81 L 405.68,599.79 L 399.98,599.78 L 388.79,599.76 L 383.25,599.75 L 372.44,599.73 L 367.10,599.72 L 356.77,599.69 L 351.67,599.68 L 341.91,599.65 L 337.10,599.64 L 327.98,599.61 L 323.52,599.59 L 315.14,599.56 L 311.05,599.54 L 303.51,599.51 L 299.85,599.49 L 293.23,599.45 L 290.04,599.43 L 284.42,599.39 L 283.09,599.38 L 280.62,599.36 L 279.42,599.35 L 277.24,599.32 L 276.18,599.31 L 274.29,599.29 L 273.39,599.28 L 271.80,599.25 L 271.05,599.24 L 269.78,599.22 L 269.19,599.21 L 268.25,599.18 L 267.82,599.17 L 267.22,599.15 L 266.97,599.13 M 663.00,597.17 L 663.00,596.86 L 663.44,596.31 L 663.72,596.05 L 664.64,595.63 L 665.14,595.43 L 666.43,595.17 L 668.67,595.00 L 669.44,595.00 L 670.39,595.33 L 670.76,596.25 L 670.70,596.43 L 670.28,596.77 L 670.04,596.93 L 669.34,597.21 L 668.59,597.47 L 666.70,597.79 L 665.76,597.90 L 664.14,597.82 L 663.80,597.78 L 663.31,597.59 L 663.11,597.48 M 316.50,591.09 L 313.68,591.04 L 308.53,590.94 L 306.03,590.88 L 301.54,590.77 L 299.37,590.71 L 295.56,590.59 L 293.73,590.53 L 290.61,590.39 L 289.14,590.33 L 286.73,590.19 L 285.62,590.11 L 283.94,589.97 L 283.20,589.89 L 282.27,589.74 L 281.75,589.50 L 281.76,589.47 L 282.03,589.43 L 282.21,589.40 L 282.82,589.35 L 283.16,589.33 L 284.10,589.29 L 284.60,589.26 L 285.85,589.22 L 286.52,589.20 L 288.07,589.16 L 288.88,589.14 L 290.73,589.10 L 291.69,589.08 L 293.82,589.04 L 294.91,589.02 L 297.31,588.98 L 299.78,588.95 L 305.47,588.88 L 308.44,588.85 L 315.08,588.79 L 318.50,588.76 L 325.99,588.70 L 329.84,588.68 L 338.09,588.63 L 342.31,588.61 L 351.25,588.57 L 355.79,588.55 L 365.32,588.52 L 370.15,588.50 L 380.18,588.48 L 385.25,588.47 L 395.69,588.45 L 400.96,588.44 L 411.73,588.42 L 417.15,588.42 L 428.17,588.41 L 439.23,588.41 L 461.70,588.42 L 472.93,588.42 L 495.23,588.46 L 500.76,588.47 L 511.67,588.49 L 517.09,588.51 L 527.71,588.54 L 532.98,588.55 L 543.23,588.59 L 548.30,588.61 L 558.10,588.65 L 562.93,588.68 L 572.17,588.72 L 576.72,588.75 L 585.33,588.80 L 589.55,588.83 L 597.44,588.89 L 601.28,588.92 L 608.36,588.99 L 611.79,589.02 L 617.98,589.10 L 620.95,589.13 L 626.14,589.21 L 627.38,589.23 L 629.65,589.27 L 630.74,589.29 L 632.74,589.33 L 633.70,589.35 L 635.40,589.40 L 636.22,589.42 L 637.62,589.46 L 638.29,589.49 L 639.39,589.53 L 639.89,589.56 L 640.67,589.60 L 641.02,589.63 L 641.46,589.68 L 641.75,589.75 L 641.77,589.81 L 641.48,589.93 L 641.28,589.98 L 640.50,590.09 L 640.05,590.14 L 638.73,590.24 L 638.00,590.28 L 636.10,590.37 L 635.07,590.41 L 632.53,590.48 L 631.18,590.52 L 627.95,590.58 L 626.25,590.62 L 622.28,590.67 L 620.20,590.70 L 615.45,590.75 L 612.97,590.78 L 607.37,590.82 L 604.47,590.84 L 597.99,590.87 L 594.63,590.89 L 587.21,590.92 L 583.38,590.93 L 574.96,590.95 L 570.63,590.96 L 561.18,590.98 L 558.75,590.98 L 553.69,590.99 L 551.12,590.99 L 545.78,591.00 L 543.08,591.00 L 537.45,591.00 L 534.60,591.01 L 528.69,591.01 L 525.70,591.01 L 519.49,591.01 L 509.83,591.01 L 500.74,591.02 L 482.99,591.02 L 478.60,591.03 L 470.01,591.03 L 465.74,591.04 L 457.42,591.05 L 453.31,591.05 L 445.31,591.06 L 441.36,591.07 L 433.75,591.08 L 429.99,591.08 L 422.80,591.10 L 419.27,591.10 L 412.55,591.12 L 409.26,591.13 L 403.07,591.14 L 400.05,591.15 L 394.44,591.17 L 391.71,591.18 L 386.72,591.20 L 384.30,591.21 L 379.99,591.22 L 377.92,591.23 L 374.33,591.25 L 372.63,591.27 L 369.81,591.29 L 368.51,591.30 L 366.51,591.32 L 364.50,591.35 L 363.61,591.37 L 361.17,591.40 L 359.86,591.42 L 356.69,591.43 L 355.02,591.43 L 351.25,591.43 L 349.29,591.43 L 345.04,591.41 L 342.86,591.39 L 338.26,591.36 L 335.93,591.34 L 331.12,591.29 L 326.27,591.23 M 251.18,583.31 L 250.96,583.22 L 250.78,582.99 L 250.73,582.87 L 250.88,582.56 L 251.00,582.40 L 251.48,582.02 L 252.57,581.38 L 252.63,581.35 L 253.06,581.28 L 253.32,581.25 L 254.13,581.19 L 254.59,581.16 L 255.78,581.10 L 256.42,581.07 L 257.98,581.02 L 258.80,580.99 L 260.70,580.94 L 261.70,580.91 L 263.95,580.86 L 265.11,580.83 L 267.68,580.78 L 269.01,580.75 L 271.89,580.71 L 273.37,580.68 L 276.56,580.64 L 278.19,580.61 L 281.66,580.57 L 283.43,580.55 L 287.18,580.50 L 289.09,580.48 L 293.10,580.44 L 297.17,580.40 L 306.06,580.33 L 310.61,580.30 L 320.38,580.23 L 325.37,580.20 L 335.92,580.14 L 341.28,580.12 L 352.52,580.07 L 358.21,580.05 L 370.03,580.01 L 376.00,579.99 L 388.30,579.96 L 394.49,579.94 L 407.17,579.92 L 413.54,579.91 L 426.49,579.89 L 439.49,579.88 L 465.90,579.87 L 479.09,579.88 L 505.28,579.91 L 511.78,579.92 L 524.59,579.94 L 530.96,579.95 L 543.44,579.99 L 549.63,580.00 L 561.67,580.05 L 567.63,580.07 L 579.14,580.12 L 584.82,580.14 L 595.70,580.20 L 601.05,580.23 L 611.18,580.29 L 616.15,580.32 L 625.45,580.40 L 629.98,580.43 L 638.34,580.51 L 640.36,580.54 L 644.22,580.58 L 646.12,580.60 L 649.70,580.64 L 651.46,580.67 L 654.77,580.71 L 656.38,580.74 L 659.39,580.79 L 660.86,580.81 L 663.56,580.86 L 664.87,580.89 L 667.25,580.94 L 668.40,580.97 L 670.44,581.02 L 671.42,581.05 L 673.12,581.10 L 673.93,581.13 L 675.27,581.19 L 675.90,581.22 L 676.86,581.28 L 677.30,581.31 L 677.89,581.37 L 678.32,581.47 L 678.76,581.79 L 679.31,582.24 L 679.53,582.44 L 679.64,582.71 L 679.64,582.83 L 679.31,583.02 L 678.32,583.33 L 678.28,583.34 L 677.90,583.36 L 677.66,583.37 L 676.89,583.39 L 676.45,583.40 L 675.29,583.42 L 674.67,583.43 L 673.14,583.45 L 672.33,583.46 L 670.45,583.47 L 669.47,583.48 L 667.24,583.50 L 666.09,583.51 L 663.53,583.53 L 662.22,583.53 L 659.34,583.55 L 657.87,583.56 L 654.69,583.57 L 653.06,583.58 L 649.59,583.59 L 647.82,583.60 L 644.07,583.62 L 642.16,583.62 L 638.15,583.64 L 634.07,583.65 L 625.17,583.67 L 620.60,583.68 L 610.80,583.71 L 605.80,583.72 L 595.20,583.73 L 589.81,583.74 L 578.52,583.76 L 572.80,583.77 L 560.92,583.78 L 554.92,583.79 L 542.56,583.80 L 536.32,583.80 L 523.57,583.81 L 517.16,583.81 L 504.13,583.82 L 491.05,583.82 L 464.48,583.83 L 451.20,583.82 L 424.84,583.82 L 418.30,583.81 L 405.41,583.80 L 399.00,583.80 L 386.44,583.79 L 380.21,583.78 L 368.09,583.77 L 362.09,583.76 L 350.51,583.75 L 344.80,583.74 L 333.87,583.72 L 328.49,583.71 L 318.30,583.69 L 313.31,583.68 L 303.97,583.66 L 299.41,583.65 L 291.02,583.62 L 288.99,583.61 L 285.12,583.60 L 283.22,583.59 L 279.62,583.58 L 277.86,583.57 L 274.55,583.56 L 272.93,583.55 L 269.92,583.53 L 268.46,583.52 L 265.76,583.51 L 264.45,583.50 L 262.07,583.48 L 260.93,583.47 L 258.89,583.46 L 257.92,583.45 L 256.23,583.43 L 255.43,583.42 L 254.11,583.40 L 253.49,583.39 L 252.55,583.37 L 252.12,583.36 L 251.56,583.34 L 251.34,583.33 M 295.98,577.03 L 296.26,576.86 L 296.67,576.26 L 296.85,575.91 L 297.07,574.88 L 297.17,574.29 L 297.23,572.70 L 297.16,569.55 L 297.12,568.65 L 297.12,567.01 L 297.13,566.22 L 297.23,564.92 L 297.28,564.33 L 297.46,563.52 L 297.79,563.00 L 297.92,563.00 L 298.15,562.31 L 298.26,561.87 L 298.44,560.43 L 298.52,559.64 L 298.64,557.65 L 298.71,554.25 L 298.70,553.05 L 298.75,550.34 L 298.78,548.96 L 298.87,546.16 L 298.92,544.78 L 299.05,542.21 L 299.27,539.00 L 299.43,537.21 L 299.69,533.57 L 299.75,532.72 L 299.83,531.26 L 299.90,529.63 L 299.91,528.84 L 300.26,527.22 L 301.06,525.43 L 301.36,525.06 L 301.65,523.89 L 301.52,522.06 L 301.34,521.50 L 301.28,520.26 L 301.61,518.82 L 301.71,518.65 L 301.92,517.92 L 302.03,517.51 L 302.22,516.38 L 302.65,512.20 L 302.73,510.71 L 303.15,508.01 L 303.27,507.41 L 303.54,506.45 L 303.96,505.55 L 304.24,505.21 L 304.50,504.49 L 304.36,503.69 L 304.27,503.60 L 304.20,503.23 L 304.18,503.01 L 304.23,502.43 L 304.81,500.28 L 304.96,499.90 L 305.28,498.81 L 305.44,498.22 L 305.75,496.85 L 306.48,492.50 L 306.60,491.49 L 306.83,489.68 L 306.94,488.81 L 307.16,487.27 L 307.38,485.81 L 307.80,483.64 L 308.01,482.67 L 308.44,481.42 L 309.13,480.42 L 309.38,480.27 L 309.62,479.78 L 309.52,479.03 L 309.47,478.96 L 309.45,478.55 L 309.45,478.31 L 309.51,477.60 L 309.59,476.83 L 309.94,474.56 L 310.15,473.33 L 310.70,470.44 L 310.99,468.96 L 311.66,465.81 L 312.00,464.25 L 312.71,461.22 L 313.06,459.76 L 313.71,457.22 L 314.03,456.04 L 314.57,454.35 L 314.69,453.99 L 314.90,453.51 L 315.14,453.16 L 315.38,453.07 L 315.58,452.64 L 315.41,451.86 L 315.31,451.70 L 315.29,450.87 L 315.31,450.39 L 315.48,449.05 L 315.59,448.34 L 315.91,446.67 L 316.09,445.80 L 316.53,443.97 L 316.99,442.13 L 318.05,438.69 L 318.31,437.92 L 318.82,436.64 L 319.51,435.32 L 319.87,434.82 L 320.65,434.24 L 321.53,434.20 L 321.58,434.24 L 321.79,434.82 L 321.91,435.18 L 322.26,436.34 L 322.46,436.99 L 322.93,438.66 L 323.18,439.56 L 323.75,441.68 L 324.05,442.79 L 324.71,445.29 L 325.05,446.58 L 325.78,449.40 L 328.13,458.69 L 328.56,460.42 L 329.36,463.63 L 329.75,465.19 L 330.48,468.09 L 330.83,469.51 L 331.49,472.11 L 331.81,473.38 L 332.40,475.70 L 332.68,476.83 L 333.21,478.88 L 333.47,479.88 L 333.94,481.68 L 334.40,483.42 L 335.15,486.20 L 335.51,487.48 L 336.08,489.42 L 336.35,490.30 L 336.77,491.52 L 336.97,492.05 L 337.27,492.66 L 337.62,493.00 L 337.74,493.00 L 338.34,492.68 L 338.69,492.48 L 339.68,491.81 L 340.22,491.45 L 341.48,490.52 L 342.14,490.04 L 343.57,488.95 L 345.01,487.83 L 347.91,485.46 L 348.60,484.89 L 349.83,483.81 L 351.35,482.40 L 351.98,481.78 L 353.66,480.24 L 354.56,479.43 L 356.65,477.61 L 358.80,475.74 L 363.50,471.85 L 364.65,470.92 L 366.80,469.21 L 367.83,468.39 L 369.62,467.03 L 370.45,466.40 L 371.68,465.55 L 371.94,465.37 L 372.33,465.14 L 372.68,465.00 L 372.81,465.00 L 373.22,464.76 L 373.45,464.61 L 374.00,464.12 L 375.84,462.00 L 376.45,461.17 L 377.72,459.88 L 378.02,459.61 L 378.54,459.24 L 379.14,459.00 L 379.28,459.00 L 379.71,458.80 L 379.94,458.68 L 380.47,458.27 L 382.18,456.50 L 382.72,455.81 L 383.82,454.73 L 384.07,454.51 L 384.51,454.20 L 385.00,454.00 L 385.11,454.00 L 385.59,453.76 L 385.86,453.60 L 386.57,453.09 L 389.17,450.91 L 390.46,449.71 L 393.27,447.18 L 394.69,445.89 L 397.65,443.29 L 399.13,441.99 L 402.09,439.45 L 403.55,438.20 L 406.34,435.86 L 407.70,434.73 L 410.16,432.72 L 411.34,431.77 L 413.32,430.23 L 414.23,429.53 L 415.57,428.59 L 415.85,428.40 L 416.27,428.15 L 416.66,428.00 L 416.80,428.00 L 417.21,427.76 L 417.44,427.61 L 417.99,427.12 L 419.84,425.00 L 420.45,424.17 L 421.84,422.88 L 422.17,422.61 L 422.78,422.24 L 423.53,422.00 L 423.93,422.00 L 424.57,421.72 L 425.00,421.06 L 425.00,421.00 L 425.29,420.63 L 425.48,420.41 L 426.12,419.76 L 426.49,419.41 L 427.44,418.51 L 427.96,418.03 L 429.19,416.92 L 429.83,416.34 L 431.30,415.05 L 432.06,414.38 L 433.72,412.95 L 439.25,408.27 L 440.47,407.26 L 442.74,405.37 L 443.84,404.46 L 445.87,402.77 L 446.86,401.95 L 448.67,400.45 L 449.55,399.72 L 451.16,398.40 L 452.72,397.11 L 455.28,395.02 L 456.47,394.05 L 458.37,392.53 L 459.24,391.84 L 460.58,390.81 L 461.19,390.35 L 462.07,389.72 L 462.46,389.46 L 462.99,389.16 L 463.48,389.00 L 463.59,389.00 L 464.11,389.29 L 464.41,389.48 L 465.24,390.09 L 468.38,392.72 L 472.50,396.45 L 472.77,374.52 L 472.79,372.52 L 472.85,368.97 L 472.89,367.27 L 472.96,364.30 L 473.00,362.88 L 473.09,360.45 L 473.14,359.30 L 473.26,357.38 L 473.32,356.47 L 473.45,355.03 L 473.52,354.36 L 473.68,353.35 L 473.77,352.90 L 473.96,352.29 L 474.27,351.81 L 474.35,351.76 L 474.76,351.65 L 474.99,351.60 L 475.67,351.51 L 476.42,351.41 L 478.59,351.26 L 479.77,351.18 L 482.59,351.08 L 487.25,351.02 L 499.00,351.00 L 499.00,383.51 L 499.00,385.54 L 499.00,389.22 L 499.00,391.01 L 499.00,394.23 L 499.01,395.79 L 499.02,398.58 L 499.02,399.92 L 499.04,402.32 L 499.04,403.47 L 499.07,405.50 L 499.08,406.47 L 499.12,408.16 L 499.14,408.98 L 499.19,410.38 L 499.22,411.04 L 499.28,412.18 L 499.35,413.26 L 499.55,414.76 L 499.66,415.43 L 499.95,416.31 L 500.11,416.70 L 500.51,417.24 L 501.25,417.93 L 501.56,418.20 L 502.72,419.17 L 503.37,419.72 L 505.04,421.12 L 505.93,421.86 L 507.91,423.51 L 511.00,426.07 L 513.06,427.78 L 517.03,431.19 L 517.94,431.98 L 519.44,433.31 L 521.00,434.76 L 523.50,437.23 L 523.77,419.07 L 523.79,417.63 L 523.85,415.00 L 523.88,413.72 L 523.95,411.42 L 523.99,410.31 L 524.08,408.36 L 524.13,407.43 L 524.23,405.84 L 524.28,405.09 L 524.40,403.87 L 524.46,403.31 L 524.59,402.48 L 524.66,402.11 L 524.80,401.69 L 525.02,401.51 L 525.29,401.68 L 525.71,401.48 L 526.00,400.56 L 526.00,400.23 L 526.41,399.76 L 526.71,399.55 L 527.99,399.29 L 528.38,399.23 L 529.39,399.15 L 529.93,399.11 L 531.28,399.06 L 532.00,399.04 L 533.74,399.01 L 536.83,399.00 L 547.67,399.00 L 547.20,427.48 L 547.15,430.22 L 547.09,435.00 L 547.06,437.29 L 547.03,441.23 L 547.02,443.11 L 547.03,446.28 L 547.04,447.78 L 547.09,450.25 L 547.12,451.40 L 547.22,453.24 L 547.27,454.09 L 547.40,455.38 L 547.47,455.95 L 547.65,456.75 L 547.98,457.47 L 548.38,457.96 L 549.13,458.41 L 549.49,458.55 L 550.10,458.35 L 550.37,458.17 L 550.76,457.35 L 551.00,455.50 L 551.00,454.84 L 551.30,453.63 L 552.03,452.48 L 552.18,452.39 L 552.40,451.97 L 552.49,451.73 L 552.59,451.06 L 552.42,448.41 L 552.22,447.38 L 552.27,445.54 L 552.93,443.58 L 553.26,443.19 L 553.57,441.84 L 553.43,439.58 L 553.24,438.82 L 553.30,437.30 L 553.98,435.53 L 554.33,435.10 L 554.67,433.67 L 554.53,431.14 L 554.33,430.23 L 554.37,428.80 L 555.03,427.48 L 555.21,427.37 L 555.47,426.96 L 555.58,426.72 L 555.71,426.07 L 555.56,423.46 L 555.39,422.55 L 555.40,420.96 L 555.42,420.61 L 555.56,420.06 L 555.88,419.58 L 556.13,419.42 L 556.38,418.59 L 556.29,417.01 L 556.15,416.47 L 556.14,415.09 L 556.51,413.26 L 556.61,413.02 L 556.82,412.22 L 556.92,411.77 L 557.10,410.67 L 557.47,406.91 L 557.52,405.65 L 557.88,403.26 L 557.98,402.72 L 558.20,401.82 L 558.56,400.91 L 558.81,400.53 L 559.10,399.38 L 559.15,397.69 L 559.07,397.19 L 559.28,396.00 L 560.01,394.48 L 560.33,394.10 L 560.66,393.22 L 560.60,392.16 L 560.55,392.08 L 560.51,391.69 L 560.50,391.46 L 560.53,390.79 L 560.58,390.06 L 560.84,387.95 L 561.00,386.81 L 561.43,384.14 L 561.66,382.76 L 562.20,379.86 L 562.48,378.42 L 563.06,375.62 L 563.35,374.27 L 563.90,371.92 L 564.17,370.84 L 564.64,369.27 L 564.75,368.94 L 564.94,368.49 L 565.18,368.16 L 565.41,368.07 L 565.60,367.66 L 565.44,366.91 L 565.32,366.71 L 565.25,365.78 L 565.24,365.24 L 565.35,363.78 L 565.42,362.99 L 565.68,361.20 L 565.82,360.28 L 566.18,358.36 L 566.37,357.40 L 566.79,355.57 L 567.00,354.68 L 567.44,353.13 L 567.66,352.42 L 568.09,351.37 L 568.66,350.58 L 569.01,350.44 L 569.70,350.46 L 570.42,350.87 L 570.48,350.97 L 570.66,351.39 L 570.75,351.63 L 570.98,352.32 L 571.23,353.07 L 571.87,355.30 L 572.22,356.53 L 573.04,359.62 L 573.48,361.26 L 574.45,365.08 L 574.96,367.07 L 576.05,371.49 L 576.61,373.77 L 577.80,378.67 L 578.40,381.17 L 579.65,386.41 L 580.28,389.07 L 581.56,394.53 L 582.84,400.03 L 585.37,411.13 L 585.99,413.87 L 587.18,419.23 L 587.76,421.87 L 588.87,426.93 L 589.41,429.42 L 590.39,434.06 L 590.87,436.31 L 591.71,440.40 L 592.11,442.37 L 592.77,445.78 L 593.52,450.00 L 593.65,450.73 L 593.88,452.51 L 594.00,453.45 L 594.23,455.61 L 594.34,456.74 L 594.56,459.27 L 594.67,460.58 L 594.87,463.46 L 594.98,464.94 L 595.17,468.14 L 595.27,469.78 L 595.45,473.28 L 595.54,475.06 L 595.71,478.85 L 595.79,480.77 L 595.95,484.81 L 596.10,488.91 L 596.36,497.78 L 596.48,502.32 L 596.67,511.94 L 596.75,516.83 L 596.87,527.02 L 596.95,542.75 L 596.96,545.35 L 596.98,550.11 L 597.00,552.41 L 597.04,556.57 L 597.06,558.56 L 597.13,562.10 L 597.16,563.78 L 597.25,566.68 L 597.29,568.04 L 597.39,570.28 L 597.45,571.32 L 597.57,572.89 L 597.63,573.59 L 597.77,574.47 L 598.00,575.00 L 598.04,575.00 L 598.12,574.76 L 598.16,574.61 L 598.23,574.06 L 598.27,573.75 L 598.34,572.89 L 598.37,572.43 L 598.43,571.26 L 598.46,570.64 L 598.52,569.17 L 598.55,568.40 L 598.60,566.62 L 598.63,565.70 L 598.68,563.62 L 598.70,562.54 L 598.75,560.17 L 598.77,558.94 L 598.80,556.27 L 598.82,554.89 L 598.86,551.92 L 598.87,550.40 L 598.90,547.13 L 598.91,545.46 L 598.94,541.91 L 598.95,540.09 L 598.96,536.24 L 598.97,534.28 L 598.98,530.15 L 598.99,528.04 L 599.00,523.62 L 599.00,516.67 L 599.00,512.66 L 599.01,504.94 L 599.02,501.14 L 599.05,493.97 L 599.06,490.47 L 599.10,484.01 L 599.12,480.88 L 599.17,475.30 L 599.18,473.96 L 599.21,471.48 L 599.23,470.28 L 599.26,468.07 L 599.27,467.01 L 599.31,465.10 L 599.32,464.18 L 599.36,462.58 L 599.37,461.82 L 599.41,460.56 L 599.43,459.97 L 599.47,459.06 L 599.48,458.65 L 599.52,458.11 L 599.58,457.75 L 599.66,457.67 L 599.83,456.80 L 599.91,456.27 L 600.07,454.65 L 600.15,453.77 L 600.28,451.62 L 600.42,448.03 L 600.47,446.34 L 600.63,443.67 L 600.72,442.44 L 600.98,440.58 L 601.12,439.73 L 601.51,438.53 L 602.27,437.31 L 602.63,436.95 L 603.15,436.57 L 603.39,436.45 L 603.77,436.67 L 603.96,436.86 L 604.31,437.78 L 604.96,440.11 L 605.03,440.41 L 605.27,441.30 L 605.41,441.78 L 605.75,443.00 L 606.11,444.29 L 607.08,447.62 L 607.60,449.37 L 608.77,453.33 L 610.63,459.50 L 611.99,463.96 L 614.65,473.24 L 615.97,477.92 L 618.49,487.36 L 619.73,492.07 L 622.03,501.29 L 623.14,505.83 L 625.12,514.45 L 625.59,516.55 L 626.46,520.57 L 626.89,522.55 L 627.65,526.29 L 628.02,528.12 L 628.67,531.54 L 628.97,533.20 L 629.49,536.24 L 629.73,537.71 L 630.11,540.33 L 630.28,541.58 L 630.51,543.73 L 630.61,544.74 L 630.67,546.38 L 630.58,548.19 L 630.47,548.90 L 630.36,549.96 L 630.32,550.44 L 630.36,551.07 L 630.40,551.33 L 630.60,551.55 L 631.09,551.45 L 631.29,551.32 L 631.57,551.40 L 631.69,551.50 L 631.80,552.07 L 631.84,552.43 L 631.78,553.54 L 631.52,555.87 L 631.40,556.74 L 631.27,558.14 L 631.23,558.78 L 631.25,559.74 L 631.29,560.16 L 631.47,560.69 L 631.91,561.00 L 632.08,561.00 L 632.37,561.47 L 632.50,561.78 L 632.71,562.83 L 632.80,563.43 L 632.93,565.01 L 633.00,567.93 L 633.00,569.17 L 633.09,571.19 L 633.15,572.13 L 633.36,573.62 L 633.49,574.30 L 633.85,575.32 L 634.57,576.43 L 634.75,576.61 L 634.65,576.91 L 634.57,576.98 L 634.24,577.10 L 634.04,577.17 L 633.42,577.28 L 633.08,577.33 L 632.14,577.43 L 631.62,577.47 L 630.30,577.55 L 629.59,577.59 L 627.85,577.66 L 626.92,577.69 L 624.71,577.75 L 623.53,577.77 L 620.79,577.82 L 619.36,577.84 L 616.04,577.88 L 614.31,577.89 L 610.38,577.92 L 608.33,577.93 L 603.73,577.95 L 601.35,577.96 L 596.03,577.97 L 593.27,577.97 L 587.19,577.98 L 584.05,577.98 L 577.14,577.99 L 565.82,577.99 L 560.99,577.99 L 551.65,577.97 L 547.05,577.96 L 538.33,577.93 L 534.07,577.92 L 526.18,577.87 L 524.26,577.86 L 520.63,577.84 L 518.84,577.82 L 515.48,577.79 L 513.83,577.78 L 510.76,577.75 L 509.27,577.73 L 506.53,577.70 L 505.20,577.68 L 502.80,577.65 L 501.65,577.63 L 499.63,577.59 L 498.67,577.58 L 497.04,577.54 L 496.28,577.52 L 495.08,577.48 L 494.54,577.46 L 493.78,577.41 L 493.18,577.35 L 490.86,576.73 L 493.65,574.90 L 494.44,574.38 L 495.80,573.87 L 496.10,573.79 L 496.57,573.79 L 497.02,574.03 L 497.07,574.12 L 497.54,574.28 L 497.83,574.36 L 498.72,574.50 L 499.22,574.57 L 500.47,574.69 L 501.13,574.74 L 502.68,574.84 L 504.30,574.93 L 508.16,575.05 L 510.15,575.09 L 514.41,575.12 L 516.54,575.12 L 520.70,575.06 L 522.72,575.01 L 526.30,574.86 L 527.13,574.81 L 528.60,574.71 L 529.30,574.65 L 530.45,574.52 L 530.99,574.46 L 531.76,574.31 L 532.44,574.05 L 532.55,573.96 L 532.76,573.39 L 532.86,573.05 L 533.05,572.03 L 533.14,571.47 L 533.31,570.06 L 533.39,569.32 L 533.53,567.59 L 533.66,565.79 L 533.86,561.48 L 533.94,559.25 L 534.02,554.46 L 534.05,552.05 L 534.03,547.28 L 534.00,544.94 L 533.85,540.68 L 533.81,539.67 L 533.69,537.83 L 533.63,536.95 L 533.49,535.42 L 533.41,534.70 L 533.24,533.52 L 532.94,532.25 L 531.80,529.00 L 514.40,529.00 L 497.00,529.00 L 496.78,548.75 L 496.57,568.50 L 496.00,549.00 L 495.43,529.50 L 495.22,549.42 L 495.19,552.16 L 495.09,557.11 L 495.07,558.29 L 495.01,560.44 L 494.98,561.49 L 494.91,563.33 L 494.88,564.21 L 494.81,565.69 L 494.78,566.38 L 494.70,567.45 L 494.67,567.92 L 494.60,568.52 L 494.49,568.82 L 494.46,568.79 L 494.39,568.38 L 494.36,568.12 L 494.31,567.29 L 494.28,566.82 L 494.23,565.59 L 494.21,564.92 L 494.17,563.32 L 494.15,562.47 L 494.11,560.52 L 494.09,559.51 L 494.07,557.24 L 494.05,556.08 L 494.03,553.53 L 494.02,552.22 L 494.00,549.41 L 493.99,546.54 L 493.97,540.15 L 493.97,536.87 L 493.98,529.81 L 493.99,526.21 L 494.01,518.71 L 494.03,514.92 L 494.08,507.20 L 494.13,499.46 L 494.28,484.29 L 494.33,480.60 L 494.42,473.56 L 494.47,470.13 L 494.58,463.77 L 494.63,460.70 L 494.75,455.26 L 494.78,453.96 L 494.84,451.58 L 494.87,450.43 L 494.94,448.35 L 494.97,447.35 L 495.03,445.61 L 495.07,444.78 L 495.14,443.39 L 495.17,442.74 L 495.24,441.75 L 495.35,440.72 L 495.43,440.14 L 495.52,439.19 L 495.54,438.76 L 495.50,438.12 L 495.47,437.84 L 495.32,437.55 L 494.96,437.52 L 494.70,437.69 L 494.28,437.40 L 494.00,436.26 L 494.00,435.95 L 493.81,435.29 L 493.68,434.94 L 493.17,434.14 L 492.88,433.71 L 492.01,432.73 L 491.53,432.20 L 490.23,430.97 L 489.52,430.32 L 487.75,428.80 L 486.79,428.00 L 484.47,426.12 L 483.23,425.14 L 480.31,422.86 L 475.19,418.94 L 473.95,418.00 L 471.81,416.39 L 470.79,415.63 L 469.05,414.37 L 468.23,413.78 L 466.85,412.83 L 466.20,412.39 L 465.14,411.73 L 464.64,411.44 L 463.86,411.04 L 463.49,410.88 L 462.94,410.72 L 462.69,410.68 L 462.33,410.74 L 461.95,411.04 L 461.92,411.10 L 461.85,411.48 L 461.82,411.71 L 461.76,412.44 L 461.73,412.85 L 461.67,413.92 L 461.64,414.50 L 461.58,415.89 L 461.55,416.63 L 461.50,418.33 L 461.47,419.22 L 461.42,421.21 L 461.40,422.24 L 461.35,424.52 L 461.33,425.69 L 461.29,428.23 L 461.25,430.83 L 461.18,436.77 L 461.15,439.85 L 461.10,446.65 L 461.08,450.15 L 461.05,457.70 L 461.03,469.75 L 461.04,527.00 L 464.44,527.00 L 465.24,527.00 L 466.53,527.00 L 467.14,527.01 L 468.08,527.21 L 468.51,527.36 L 469.15,527.99 L 469.44,528.37 L 469.82,529.65 L 469.98,530.39 L 470.16,532.54 L 470.20,533.14 L 470.24,534.55 L 470.25,535.29 L 470.26,536.99 L 470.26,537.88 L 470.24,539.91 L 470.22,540.96 L 470.18,543.34 L 470.16,544.58 L 470.10,547.34 L 470.00,551.93 L 469.93,555.22 L 469.76,561.26 L 469.71,562.71 L 469.62,565.38 L 469.57,566.67 L 469.47,569.00 L 469.42,570.11 L 469.31,572.01 L 469.26,572.91 L 469.16,574.33 L 469.11,574.97 L 469.02,575.84 L 468.88,576.45 L 468.84,576.49 L 468.22,576.58 L 467.83,576.63 L 466.56,576.72 L 465.86,576.77 L 464.02,576.86 L 463.03,576.91 L 460.70,577.00 L 459.47,577.05 L 456.71,577.13 L 455.29,577.18 L 452.18,577.26 L 441.88,577.45 L 440.07,577.48 L 436.62,577.52 L 434.94,577.53 L 431.79,577.55 L 430.26,577.55 L 427.49,577.54 L 426.15,577.54 L 423.82,577.51 L 422.71,577.49 L 420.87,577.45 L 420.02,577.42 L 418.76,577.35 L 418.20,577.32 L 417.58,577.24 L 417.43,577.10 L 417.95,576.89 L 418.95,576.09 L 419.93,574.72 L 419.96,574.61 L 420.03,573.94 L 420.07,573.54 L 420.13,572.35 L 420.15,571.69 L 420.20,570.03 L 420.22,569.15 L 420.25,567.09 L 420.26,566.02 L 420.27,563.63 L 420.28,562.40 L 420.28,559.73 L 420.21,551.05 L 419.93,529.00 L 401.96,529.00 L 384.00,529.00 L 383.98,531.75 L 383.98,532.29 L 383.93,533.01 L 383.90,533.32 L 383.77,533.62 L 383.70,533.71 L 383.47,533.60 L 383.00,533.00 L 382.83,532.74 L 382.55,532.72 L 382.43,532.80 L 382.23,533.51 L 382.14,533.95 L 382.01,535.42 L 381.90,538.50 L 381.89,539.30 L 381.86,540.62 L 381.84,541.23 L 381.81,542.19 L 381.79,542.62 L 381.74,543.23 L 381.72,543.49 L 381.66,543.78 L 381.63,543.88 L 381.55,543.85 L 381.50,543.80 L 381.40,543.48 L 381.34,543.28 L 381.20,542.69 L 380.94,541.50 L 380.89,541.23 L 380.78,540.09 L 380.72,539.43 L 380.62,537.60 L 380.57,536.60 L 380.47,534.17 L 380.42,532.88 L 380.34,529.94 L 380.30,528.41 L 380.23,525.04 L 380.20,523.31 L 380.15,519.62 L 380.06,507.75 L 380.05,505.70 L 380.03,501.77 L 380.02,499.84 L 379.99,496.20 L 379.97,494.42 L 379.92,491.15 L 379.90,489.56 L 379.84,486.74 L 379.81,485.39 L 379.74,483.10 L 379.71,482.03 L 379.63,480.35 L 379.60,479.59 L 379.52,478.61 L 379.40,478.00 L 379.31,478.00 L 378.58,478.49 L 378.13,478.81 L 376.80,479.83 L 376.07,480.39 L 374.31,481.80 L 371.40,484.22 L 364.00,490.44 L 363.87,498.47 L 363.86,499.24 L 363.83,500.55 L 363.81,501.16 L 363.77,502.16 L 363.75,502.62 L 363.70,503.33 L 363.67,503.64 L 363.61,504.06 L 363.58,504.23 L 363.50,504.38 L 363.46,504.42 L 363.36,504.30 L 363.00,503.00 L 362.84,502.24 L 362.61,501.40 L 362.50,501.10 L 362.35,501.25 L 362.31,501.36 L 362.25,501.78 L 362.22,502.02 L 362.16,502.73 L 362.14,503.12 L 362.08,504.13 L 362.00,506.00 L 361.74,512.50 L 360.81,505.02 L 360.68,503.99 L 360.42,502.09 L 360.29,501.18 L 360.05,499.64 L 359.93,498.93 L 359.74,497.92 L 359.53,497.20 L 359.43,497.10 L 359.04,497.11 L 358.81,497.15 L 358.17,497.39 L 357.49,497.68 L 355.62,498.83 L 354.63,499.48 L 352.45,501.14 L 349.27,503.94 L 345.04,508.04 L 347.16,519.77 L 347.55,521.93 L 348.17,526.39 L 348.46,528.68 L 348.91,533.71 L 349.01,535.02 L 349.19,537.84 L 349.27,539.28 L 349.42,542.40 L 349.48,544.00 L 349.60,547.47 L 349.75,553.14 L 350.22,574.77 L 353.67,575.33 L 354.45,575.46 L 355.72,575.65 L 356.31,575.72 L 357.25,575.61 L 357.69,575.50 L 358.36,574.87 L 358.66,574.47 L 359.12,573.10 L 359.23,572.69 L 359.41,571.71 L 359.49,571.18 L 359.64,569.93 L 359.71,569.27 L 359.83,567.72 L 359.89,566.91 L 359.99,565.04 L 360.04,564.06 L 360.14,561.84 L 360.18,560.68 L 360.28,558.07 L 360.32,556.72 L 360.42,553.71 L 360.57,548.69 L 360.63,546.89 L 360.74,543.63 L 360.80,542.07 L 360.91,539.29 L 360.97,537.97 L 361.08,535.67 L 361.13,534.58 L 361.24,532.76 L 361.30,531.91 L 361.41,530.58 L 361.46,529.97 L 361.57,529.11 L 361.63,528.75 L 361.74,528.37 L 361.80,528.25 L 361.91,528.36 L 361.97,528.47 L 362.09,529.06 L 362.15,529.42 L 362.27,530.50 L 362.33,531.10 L 362.45,532.67 L 362.51,533.51 L 362.64,535.57 L 362.70,536.65 L 362.83,539.20 L 362.90,540.53 L 363.04,543.56 L 363.11,545.14 L 363.25,548.66 L 363.47,554.50 L 363.52,555.94 L 363.62,558.55 L 363.66,559.81 L 363.75,562.08 L 363.79,563.17 L 363.87,565.12 L 363.91,566.06 L 364.00,567.72 L 364.08,569.30 L 364.29,571.71 L 364.40,572.80 L 364.69,574.35 L 364.85,575.04 L 365.27,575.93 L 365.50,576.32 L 366.09,576.75 L 366.42,576.93 L 367.23,577.10 L 368.75,577.27 L 368.88,577.29 L 368.93,577.31 L 368.92,577.33 L 368.71,577.35 L 368.43,577.38 L 367.13,577.44 L 366.36,577.46 L 364.16,577.52 L 362.95,577.54 L 359.94,577.59 L 358.35,577.62 L 354.62,577.66 L 352.68,577.69 L 348.35,577.73 L 346.11,577.75 L 341.26,577.78 L 333.50,577.82 L 330.43,577.83 L 324.81,577.83 L 322.08,577.83 L 317.16,577.82 L 314.79,577.81 L 310.60,577.77 L 308.61,577.74 L 305.19,577.68 L 303.58,577.65 L 300.97,577.57 L 299.77,577.52 L 298.00,577.42 L 297.22,577.36 L 296.32,577.24 L 295.98,577.18 M 447.75,574.46 L 447.87,574.42 L 448.08,574.09 L 448.18,573.88 L 448.35,573.16 L 448.43,572.75 L 448.56,571.59 L 448.63,570.96 L 448.73,569.31 L 448.78,568.42 L 448.86,566.24 L 448.89,565.08 L 448.94,562.30 L 448.96,560.84 L 448.99,557.43 L 449.00,551.53 L 449.00,529.00 L 436.00,529.00 L 423.00,529.00 L 422.96,531.75 L 422.94,533.42 L 422.92,537.38 L 422.91,539.43 L 422.92,543.90 L 422.94,548.44 L 423.05,557.67 L 423.08,559.88 L 423.16,563.93 L 423.20,565.87 L 423.29,569.13 L 423.31,569.88 L 423.36,571.17 L 423.38,571.78 L 423.43,572.76 L 423.45,573.21 L 423.50,573.84 L 423.58,574.34 L 423.67,574.59 L 424.36,574.95 L 424.81,575.10 L 426.36,575.29 L 426.81,575.32 L 427.91,575.36 L 428.50,575.38 L 429.89,575.38 L 430.62,575.38 L 432.33,575.34 L 435.29,575.25 L 436.83,575.20 L 439.74,575.07 L 441.14,575.00 L 443.57,574.86 L 444.70,574.79 L 446.38,574.65 L 446.74,574.61 L 447.27,574.55 L 447.50,574.52 M 564.76,532.80 L 565.02,490.11 L 560.39,486.57 L 559.75,486.08 L 558.52,485.24 L 557.93,484.84 L 556.88,484.22 L 556.38,483.95 L 555.62,483.62 L 554.94,483.54 L 554.91,483.56 L 554.85,483.82 L 554.82,484.00 L 554.77,484.56 L 554.74,484.88 L 554.69,485.72 L 554.66,486.17 L 554.61,487.28 L 554.56,488.45 L 554.46,491.52 L 554.42,493.17 L 554.33,497.09 L 554.29,499.15 L 554.22,503.81 L 554.18,506.21 L 554.13,511.48 L 554.10,514.18 L 554.06,519.93 L 554.03,528.96 L 554.02,532.10 L 554.01,537.76 L 554.00,540.50 L 554.00,545.40 L 553.99,547.77 L 554.00,551.96 L 554.00,553.98 L 554.03,557.52 L 554.04,559.22 L 554.10,562.16 L 554.13,563.56 L 554.22,565.96 L 554.27,567.10 L 554.40,569.01 L 554.48,569.90 L 554.67,571.37 L 554.77,572.06 L 555.02,573.15 L 555.16,573.65 L 555.48,574.41 L 555.82,575.10 L 556.74,575.72 L 557.24,575.94 L 558.54,575.94 L 561.00,575.75 L 564.50,575.50 L 564.76,532.80 M 551.00,527.08 L 551.00,479.16 L 544.75,473.58 L 543.89,472.82 L 542.22,471.42 L 541.41,470.75 L 539.97,469.65 L 539.29,469.14 L 538.23,468.45 L 537.25,468.00 L 537.13,468.00 L 536.91,468.57 L 536.81,468.96 L 536.64,470.41 L 536.60,470.83 L 536.52,471.88 L 536.49,472.43 L 536.42,473.75 L 536.39,474.44 L 536.33,476.05 L 536.31,476.90 L 536.26,478.82 L 536.23,479.82 L 536.19,482.07 L 536.17,483.24 L 536.14,485.83 L 536.12,487.18 L 536.09,490.15 L 536.08,491.68 L 536.06,495.03 L 536.05,496.75 L 536.03,500.51 L 536.02,502.44 L 536.01,506.62 L 536.01,508.76 L 536.00,513.38 L 536.00,520.83 L 536.00,524.47 L 536.01,531.46 L 536.02,534.90 L 536.05,541.40 L 536.07,544.57 L 536.11,550.43 L 536.14,553.27 L 536.20,558.34 L 536.23,560.77 L 536.29,564.91 L 536.31,565.88 L 536.35,567.62 L 536.37,568.45 L 536.41,569.91 L 536.43,570.60 L 536.47,571.75 L 536.49,572.29 L 536.53,573.12 L 536.55,573.50 L 536.60,573.99 L 536.67,574.33 L 536.76,574.42 L 537.46,574.59 L 537.89,574.67 L 539.14,574.80 L 539.82,574.86 L 541.46,574.95 L 544.17,575.00 L 551.00,575.00 L 551.00,527.08 M 419.64,525.62 L 419.68,525.48 L 419.77,524.96 L 419.81,524.67 L 419.89,523.89 L 419.96,523.05 L 420.06,520.75 L 420.11,519.51 L 420.15,516.63 L 420.13,512.00 L 420.11,511.21 L 420.09,509.12 L 420.08,508.00 L 420.05,505.33 L 420.04,503.94 L 420.03,500.80 L 420.02,499.18 L 420.01,495.68 L 420.00,492.11 L 419.99,484.34 L 420.01,472.59 L 420.01,471.17 L 420.01,468.54 L 420.02,467.26 L 420.02,464.89 L 420.01,462.58 L 419.99,458.70 L 419.98,456.88 L 419.93,453.89 L 419.90,452.51 L 419.82,450.33 L 419.77,449.33 L 419.66,447.86 L 419.59,447.21 L 419.44,446.36 L 419.35,446.01 L 419.15,445.69 L 418.79,445.71 L 417.47,446.75 L 414.53,449.10 L 413.02,450.31 L 409.84,452.88 L 406.63,455.48 L 400.24,460.70 L 398.71,461.97 L 395.86,464.32 L 394.50,465.45 L 392.12,467.45 L 391.00,468.38 L 389.26,469.87 L 388.87,470.20 L 388.25,470.75 L 387.56,471.38 L 384.00,474.74 L 384.00,484.37 L 384.00,494.00 L 399.50,494.00 L 401.92,494.00 L 406.00,494.07 L 406.95,494.09 L 408.65,494.15 L 409.47,494.18 L 410.88,494.27 L 411.54,494.31 L 412.64,494.41 L 413.16,494.46 L 413.94,494.58 L 414.29,494.64 L 414.73,494.78 L 415.00,495.00 L 415.00,495.08 L 414.73,495.22 L 414.55,495.29 L 413.94,495.42 L 413.59,495.48 L 412.64,495.59 L 412.13,495.64 L 410.88,495.73 L 410.21,495.78 L 408.65,495.85 L 407.84,495.88 L 406.00,495.93 L 399.50,496.00 L 384.00,496.00 L 384.00,511.33 L 384.00,513.44 L 384.06,517.34 L 384.09,519.21 L 384.21,522.37 L 384.24,523.10 L 384.32,524.36 L 384.36,524.95 L 384.44,525.90 L 384.48,526.33 L 384.57,526.93 L 384.72,527.39 L 384.77,527.43 L 385.20,527.53 L 385.48,527.57 L 386.32,527.65 L 386.79,527.69 L 387.99,527.76 L 388.63,527.79 L 390.15,527.84 L 391.73,527.89 L 395.63,527.94 L 402.19,527.93 L 404.21,527.90 L 407.54,527.86 L 409.10,527.84 L 411.62,527.78 L 412.79,527.75 L 414.62,527.66 L 415.46,527.61 L 416.71,527.48 L 417.27,527.40 L 418.07,527.20 L 418.43,527.10 L 418.90,526.82 L 419.30,526.52 M 448.25,527.34 L 458.00,526.70 L 458.00,511.60 L 458.00,496.50 L 440.75,496.84 L 439.32,496.87 L 436.71,496.94 L 435.45,496.98 L 433.18,497.06 L 432.08,497.11 L 430.16,497.21 L 429.24,497.26 L 427.65,497.38 L 426.90,497.44 L 425.66,497.58 L 425.09,497.65 L 424.19,497.80 L 423.79,497.88 L 423.24,498.05 L 422.80,498.32 L 422.71,498.48 L 422.55,499.28 L 422.49,499.74 L 422.40,501.04 L 422.37,501.73 L 422.35,503.36 L 422.42,505.98 L 422.47,506.88 L 422.56,509.08 L 422.60,510.22 L 422.69,512.69 L 422.73,513.93 L 422.80,516.38 L 422.87,519.68 L 422.89,520.42 L 422.92,521.69 L 422.95,522.30 L 423.01,523.32 L 423.07,524.28 L 423.31,525.58 L 423.45,526.14 L 423.86,526.79 L 424.75,527.31 L 425.10,527.40 L 426.12,527.55 L 426.68,527.62 L 428.09,527.72 L 428.85,527.77 L 430.60,527.82 L 431.52,527.85 L 433.56,527.86 L 435.66,527.86 L 440.49,527.74 L 442.97,527.65 M 528.76,527.40 L 529.69,527.21 L 531.26,526.30 L 532.89,524.35 L 532.98,524.14 L 533.16,523.50 L 533.24,523.15 L 533.39,522.26 L 533.53,521.31 L 533.75,518.84 L 533.84,517.53 L 533.95,514.58 L 534.00,513.07 L 534.01,509.95 L 534.01,508.41 L 533.93,505.44 L 533.87,504.01 L 533.70,501.53 L 533.60,500.37 L 533.32,498.68 L 533.25,498.32 L 533.08,497.81 L 532.81,497.38 L 532.73,497.33 L 532.25,497.23 L 531.97,497.19 L 531.12,497.10 L 530.65,497.05 L 529.48,496.97 L 528.86,496.93 L 527.40,496.86 L 525.88,496.80 L 522.20,496.71 L 516.06,496.65 L 500.50,496.65 L 515.00,496.08 L 516.99,496.00 L 520.43,495.81 L 521.24,495.76 L 522.66,495.65 L 523.35,495.60 L 524.51,495.49 L 525.05,495.44 L 525.91,495.34 L 526.30,495.28 L 526.83,495.18 L 527.05,495.13 L 527.21,495.04 L 527.00,494.91 L 526.55,494.80 L 526.07,494.64 L 525.91,494.57 L 526.00,494.47 L 526.12,494.43 L 526.79,494.39 L 528.47,494.41 L 529.43,494.43 L 530.73,494.38 L 531.29,494.32 L 531.99,493.95 L 532.30,493.70 L 532.67,492.77 L 533.16,490.50 L 533.26,489.95 L 533.44,488.14 L 533.53,487.14 L 533.69,484.65 L 533.94,476.22 L 533.95,474.96 L 533.95,472.89 L 533.95,471.91 L 533.92,470.33 L 533.90,469.58 L 533.82,468.39 L 533.77,467.84 L 533.61,466.95 L 533.43,466.12 L 532.77,464.95 L 531.16,463.22 L 530.01,462.12 L 527.32,459.73 L 525.90,458.48 L 522.47,455.65 L 521.56,454.90 L 519.55,453.29 L 518.52,452.46 L 516.24,450.67 L 515.06,449.75 L 512.49,447.76 L 508.25,444.50 L 497.00,435.91 L 497.04,481.33 L 497.04,484.45 L 497.06,490.46 L 497.07,493.42 L 497.10,499.01 L 497.12,501.74 L 497.17,506.78 L 497.19,509.22 L 497.25,513.59 L 497.28,515.67 L 497.35,519.24 L 497.38,520.91 L 497.46,523.54 L 497.48,524.14 L 497.52,525.14 L 497.54,525.60 L 497.58,526.32 L 497.60,526.64 L 497.64,527.07 L 497.71,527.37 L 497.76,527.42 L 498.14,527.51 L 498.38,527.56 L 499.11,527.64 L 499.51,527.67 L 500.53,527.74 L 501.07,527.77 L 502.34,527.83 L 503.65,527.88 L 506.83,527.94 L 508.48,527.97 L 512.04,527.99 L 513.83,527.99 L 517.39,527.95 L 519.14,527.93 L 522.34,527.84 L 523.86,527.79 L 526.31,527.66 L 526.86,527.62 L 527.76,527.54 L 528.18,527.49 M 342.00,508.00 L 342.00,507.72 L 341.56,507.29 L 340.50,507.00 L 340.09,507.00 L 339.44,507.29 L 339.00,508.00 L 339.00,508.27 L 339.44,508.71 L 340.50,509.00 L 340.91,509.00 L 341.56,508.71 L 341.83,508.52 M 350.41,498.49 L 351.36,497.60 L 353.19,495.97 L 354.08,495.20 L 355.66,493.91 L 356.40,493.32 L 357.55,492.51 L 358.58,492.00 L 358.76,492.00 L 359.26,491.77 L 359.53,491.62 L 360.16,491.14 L 362.18,489.07 L 362.44,488.73 L 363.38,487.76 L 363.91,487.23 L 365.30,485.93 L 366.04,485.24 L 367.78,483.71 L 368.68,482.91 L 370.67,481.22 L 372.70,479.50 L 377.08,475.96 L 383.32,471.18 L 384.20,470.55 L 385.80,469.13 L 386.16,468.79 L 386.74,468.17 L 387.30,467.43 L 387.52,467.04 L 388.19,466.42 L 389.20,466.00 L 389.36,466.00 L 389.93,465.70 L 390.25,465.51 L 391.08,464.90 L 394.04,462.25 L 394.71,461.58 L 396.63,459.79 L 397.67,458.84 L 400.13,456.66 L 402.68,454.41 L 408.36,449.61 L 409.74,448.45 L 412.36,446.30 L 413.61,445.28 L 415.78,443.56 L 416.29,443.17 L 417.17,442.50 L 417.59,442.19 L 418.27,441.69 L 418.59,441.47 L 419.05,441.18 L 419.45,441.00 L 419.51,441.00 L 419.82,440.82 L 419.99,440.71 L 420.48,440.34 L 422.31,438.75 L 422.91,438.18 L 424.32,436.91 L 425.05,436.24 L 426.72,434.77 L 427.58,434.01 L 429.52,432.35 L 430.51,431.50 L 432.71,429.64 L 433.84,428.69 L 436.30,426.64 L 437.57,425.59 L 440.29,423.34 L 441.69,422.20 L 444.69,419.75 L 449.48,415.87 L 463.13,404.85 L 471.32,411.14 L 472.67,412.18 L 475.69,414.52 L 477.25,415.72 L 480.65,418.37 L 482.39,419.73 L 486.11,422.64 L 488.00,424.12 L 491.97,427.24 L 496.00,430.40 L 504.56,437.17 L 508.89,440.60 L 517.71,447.61 L 522.11,451.10 L 530.70,457.97 L 532.82,459.66 L 536.92,462.95 L 538.94,464.57 L 542.82,467.70 L 544.73,469.23 L 548.33,472.14 L 550.09,473.57 L 553.36,476.22 L 554.94,477.51 L 557.81,479.85 L 561.60,482.97 L 563.75,484.75 L 567.51,487.86 L 569.30,489.34 L 572.39,491.88 L 573.86,493.09 L 576.33,495.11 L 577.50,496.06 L 579.42,497.62 L 580.32,498.34 L 581.75,499.47 L 582.40,499.99 L 583.39,500.74 L 583.84,501.08 L 584.45,501.50 L 585.00,501.81 L 585.13,501.86 L 585.44,501.60 L 585.60,501.42 L 585.97,500.78 L 587.04,497.84 L 587.31,496.83 L 587.62,495.43 L 587.74,494.81 L 587.68,493.96 L 587.61,493.57 L 587.13,492.97 L 585.88,492.02 L 585.56,491.81 L 584.39,490.94 L 583.73,490.45 L 582.03,489.13 L 581.14,488.43 L 579.14,486.84 L 576.03,484.31 L 575.00,483.46 L 572.39,481.34 L 571.02,480.22 L 568.03,477.80 L 566.52,476.57 L 563.52,474.14 L 559.38,470.81 L 558.75,470.31 L 557.24,469.08 L 556.44,468.43 L 554.64,466.95 L 552.77,465.41 L 548.46,461.83 L 546.25,459.99 L 541.65,456.12 L 535.01,450.50 L 532.92,448.71 L 528.82,445.27 L 526.83,443.60 L 523.24,440.64 L 522.39,439.95 L 520.87,438.71 L 520.13,438.12 L 518.87,437.12 L 518.28,436.65 L 517.34,435.93 L 516.34,435.20 L 515.39,434.57 L 513.75,433.16 L 513.39,432.82 L 512.83,432.20 L 512.34,431.45 L 512.19,431.05 L 511.69,430.43 L 510.89,430.00 L 510.77,430.00 L 509.90,429.51 L 509.38,429.19 L 507.88,428.16 L 507.06,427.60 L 505.11,426.18 L 501.90,423.75 L 499.89,422.20 L 496.02,419.21 L 494.12,417.73 L 490.52,414.92 L 488.75,413.54 L 485.49,410.98 L 483.90,409.73 L 481.05,407.47 L 479.68,406.39 L 477.32,404.50 L 476.20,403.61 L 474.40,402.14 L 473.58,401.47 L 472.42,400.49 L 471.49,399.64 L 471.08,399.18 L 469.63,397.98 L 468.85,397.36 L 467.06,396.12 L 466.18,395.53 L 464.59,394.62 L 464.23,394.43 L 463.64,394.17 L 463.01,394.00 L 462.94,394.00 L 462.64,394.14 L 462.46,394.24 L 461.94,394.58 L 461.65,394.78 L 460.89,395.32 L 460.49,395.62 L 459.50,396.36 L 458.98,396.76 L 457.75,397.72 L 457.11,398.23 L 455.64,399.39 L 454.88,400.01 L 453.16,401.39 L 452.27,402.11 L 450.30,403.72 L 449.28,404.55 L 447.06,406.38 L 445.91,407.33 L 443.42,409.39 L 442.14,410.45 L 439.38,412.75 L 437.97,413.92 L 434.93,416.46 L 433.38,417.75 L 430.07,420.53 L 428.38,421.95 L 424.79,424.97 L 422.96,426.51 L 419.07,429.78 L 412.92,434.97 L 411.57,436.10 L 408.50,438.70 L 406.91,440.04 L 403.44,442.97 L 401.66,444.46 L 397.91,447.62 L 396.01,449.22 L 392.10,452.52 L 388.16,455.83 L 380.32,462.43 L 378.39,464.04 L 374.71,467.15 L 369.52,471.50 L 366.25,474.25 L 360.04,479.46 L 358.54,480.72 L 355.72,483.09 L 354.35,484.25 L 351.83,486.37 L 350.62,487.39 L 348.48,489.19 L 347.46,490.04 L 345.77,491.46 L 344.99,492.12 L 343.82,493.11 L 342.74,494.02 L 342.02,494.64 L 341.09,495.53 L 340.70,495.96 L 340.35,496.77 L 340.24,497.21 L 340.39,498.32 L 341.05,500.77 L 341.40,501.93 L 342.12,503.76 L 342.29,504.14 L 342.58,504.66 L 342.91,504.99 L 342.99,504.99 L 343.68,504.48 L 344.10,504.15 L 345.36,503.08 L 346.03,502.49 L 347.68,501.01 L 348.53,500.24 M 458.01,456.20 L 458.01,453.61 L 458.03,448.58 L 458.04,446.11 L 458.07,441.39 L 458.08,439.08 L 458.12,434.78 L 458.15,432.69 L 458.20,428.91 L 458.23,427.10 L 458.29,423.97 L 458.32,422.49 L 458.40,420.10 L 458.43,419.01 L 458.51,417.47 L 458.63,416.25 L 458.80,415.63 L 458.78,414.66 L 458.30,414.00 L 458.25,414.00 L 457.94,414.17 L 457.76,414.28 L 457.21,414.65 L 456.91,414.86 L 456.14,415.42 L 455.73,415.72 L 454.77,416.45 L 453.76,417.21 L 451.25,419.16 L 449.93,420.20 L 446.95,422.57 L 445.42,423.79 L 442.16,426.43 L 440.51,427.77 L 437.15,430.53 L 435.48,431.91 L 432.22,434.63 L 427.66,438.50 L 423.00,442.50 L 422.94,467.90 L 422.93,469.81 L 422.94,473.39 L 422.95,475.13 L 422.98,478.36 L 423.00,479.92 L 423.05,482.74 L 423.08,484.10 L 423.16,486.49 L 423.20,487.63 L 423.29,489.54 L 423.34,490.44 L 423.45,491.84 L 423.50,492.47 L 423.63,493.31 L 423.84,493.90 L 423.90,493.94 L 424.37,494.02 L 424.65,494.05 L 425.52,494.11 L 426.00,494.14 L 427.22,494.18 L 427.87,494.21 L 429.39,494.24 L 430.98,494.26 L 434.88,494.27 L 441.40,494.20 L 458.00,493.91 L 458.01,456.20 M 378.75,576.78 L 379.37,576.48 L 380.34,575.76 L 381.00,574.85 L 381.00,574.49 L 381.44,574.13 L 381.71,573.99 L 382.45,574.03 L 382.83,574.10 L 383.56,574.49 L 384.33,575.42 L 384.49,575.83 L 384.32,576.52 L 384.17,576.84 L 383.41,577.33 L 382.96,577.54 L 381.67,577.81 L 379.17,577.93 L 378.51,577.92 L 377.68,577.87 L 377.34,577.85 L 377.13,577.73 L 377.11,577.66 L 377.50,577.40 L 377.78,577.25 M 395.00,577.06 L 393.69,576.98 L 391.59,576.78 L 390.64,576.67 L 389.28,576.45 L 388.71,576.34 L 388.16,576.10 L 388.33,575.75 L 389.04,575.46 L 391.12,575.15 L 392.25,575.04 L 394.91,575.08 L 396.28,575.14 L 399.20,575.51 L 403.50,576.43 L 404.16,576.61 L 405.21,576.92 L 405.67,577.06 L 406.28,577.28 L 406.53,577.38 L 406.65,577.51 L 406.65,577.57 L 406.23,577.63 L 405.95,577.65 L 404.94,577.64 L 404.35,577.63 L 402.69,577.54 L 401.77,577.50 L 399.40,577.35 L 398.13,577.27 M 444.36,340.97 L 443.02,340.55 L 440.06,339.06 L 438.57,338.22 L 435.64,336.12 L 434.20,335.02 L 431.68,332.60 L 428.77,328.97 L 428.11,327.90 L 427.00,325.56 L 426.48,324.36 L 425.66,321.85 L 425.28,320.58 L 424.74,318.00 L 424.51,316.71 L 424.27,314.16 L 424.19,312.89 L 424.26,310.48 L 424.33,309.30 L 424.70,307.12 L 424.93,306.07 L 425.62,304.23 L 427.03,301.97 L 427.56,301.36 L 428.25,300.18 L 428.39,299.91 L 428.52,299.46 L 428.50,298.99 L 428.36,298.77 L 428.52,298.06 L 428.67,297.66 L 429.32,296.67 L 429.70,296.15 L 430.74,294.98 L 431.31,294.37 L 432.65,293.10 L 434.04,291.82 L 437.30,289.36 L 438.12,288.79 L 439.75,287.77 L 442.09,286.54 L 443.93,285.71 L 447.68,284.67 L 449.56,284.25 L 453.32,283.99 L 455.19,283.95 L 458.86,284.44 L 460.67,284.77 L 464.16,285.96 L 465.87,286.64 L 469.08,288.50 L 470.64,289.52 L 473.48,292.01 L 474.85,293.34 L 477.24,296.43 L 480.19,301.70 L 480.97,303.46 L 481.96,307.06 L 482.37,308.86 L 482.64,312.47 L 482.69,314.28 L 482.28,317.82 L 481.98,319.58 L 480.91,322.97 L 480.29,324.64 L 478.60,327.78 L 477.67,329.32 L 475.38,332.13 L 474.16,333.49 L 471.31,335.89 L 466.44,338.92 L 465.77,339.26 L 464.17,339.85 L 463.34,340.13 L 461.49,340.61 L 459.59,341.06 L 455.43,341.58 L 453.34,341.77 L 449.35,341.73 L 448.40,341.69 L 446.65,341.47 L 445.81,341.35 M 463.54,335.12 L 464.27,334.79 L 465.75,333.91 L 466.49,333.43 L 467.93,332.31 L 469.36,331.14 L 471.95,328.29 L 473.18,326.81 L 475.11,323.65 L 475.54,322.86 L 476.21,321.28 L 476.91,318.98 L 477.15,317.89 L 477.40,315.70 L 477.50,314.61 L 477.48,312.44 L 477.43,311.37 L 477.15,309.24 L 476.97,308.19 L 476.43,306.13 L 476.12,305.11 L 475.33,303.14 L 474.90,302.17 L 473.85,300.31 L 473.30,299.40 L 472.02,297.69 L 469.84,295.30 L 468.71,294.22 L 466.33,292.50 L 465.11,291.70 L 462.49,290.53 L 461.15,290.02 L 458.24,289.38 L 453.50,289.00 L 451.84,289.00 L 448.93,289.32 L 447.53,289.54 L 444.97,290.35 L 443.71,290.83 L 441.30,292.22 L 437.62,295.03 L 436.16,296.31 L 433.90,298.91 L 432.88,300.24 L 431.41,303.10 L 430.76,304.58 L 429.99,307.89 L 429.53,313.58 L 429.52,315.12 L 429.62,317.45 L 429.69,318.53 L 430.03,320.28 L 430.24,321.13 L 430.94,322.76 L 432.53,325.58 L 432.96,326.28 L 434.10,327.77 L 434.70,328.53 L 436.08,330.02 L 436.78,330.75 L 438.25,332.09 L 440.39,333.75 L 441.48,334.48 L 443.19,335.49 L 444.02,335.93 L 445.60,336.47 L 446.43,336.69 L 448.40,336.89 L 448.94,336.93 L 450.19,336.96 L 452.36,336.98 L 453.55,336.97 L 455.73,336.85 L 456.79,336.77 L 458.72,336.50 L 459.66,336.35 L 461.33,335.92 L 462.13,335.69 Z" fill="rgba(39,39,37,1)"/>
</g>
</svg>